<svg width="374" height="226" viewBox="0 0 374 226" fill="none" xmlns="http://www.w3.org/2000/svg">
<g clip-path="url(#clip0)">
<path d="M234.484 211.572L220.596 216.019C220.069 216.187 219.632 216.558 219.379 217.049C219.126 217.54 219.078 218.112 219.247 218.638L219.882 220.622C220.05 221.148 220.421 221.586 220.912 221.839C221.403 222.092 221.975 222.14 222.501 221.971L225.995 232.884C226.248 233.673 226.803 234.33 227.54 234.709C228.277 235.089 229.135 235.16 229.924 234.907L237.86 232.366C238.65 232.114 239.306 231.558 239.686 230.821C240.065 230.084 240.136 229.227 239.884 228.437L236.39 217.525C236.916 217.356 237.354 216.986 237.607 216.494C237.86 216.003 237.908 215.431 237.739 214.905L237.104 212.921C236.935 212.395 236.565 211.957 236.074 211.704C235.582 211.451 235.011 211.404 234.484 211.572ZM236.947 226.096L230.994 228.002L229.724 224.034L235.676 222.128L236.947 226.096ZM235.041 220.144L228.097 222.367C227.834 222.451 227.615 222.637 227.488 222.882C227.362 223.128 227.338 223.414 227.422 223.677L229.328 229.629C229.412 229.892 229.597 230.111 229.843 230.238C230.089 230.364 230.374 230.388 230.638 230.304L237.582 228.08L237.9 229.073C237.984 229.336 237.96 229.621 237.834 229.867C237.707 230.113 237.488 230.298 237.225 230.382L229.289 232.923C229.026 233.007 228.74 232.984 228.494 232.857C228.249 232.731 228.063 232.512 227.979 232.249L224.485 221.336L234.406 218.16L235.041 220.144ZM221.866 219.987L221.231 218.003L235.12 213.556L235.755 215.54L221.866 219.987Z" fill="#E2FFE9" fill-opacity="0.67"/>
</g>
<g clip-path="url(#clip1)">
<path d="M104.484 213.572L90.5955 218.019C90.0693 218.187 89.6315 218.558 89.3786 219.049C89.1256 219.54 89.0781 220.112 89.2466 220.638L89.8818 222.622C90.0503 223.148 90.4209 223.586 90.9121 223.839C91.4033 224.092 91.9749 224.139 92.5012 223.971L95.9948 234.884C96.2475 235.673 96.8034 236.33 97.5403 236.709C98.2771 237.089 99.1345 237.16 99.9238 236.907L107.86 234.366C108.65 234.114 109.306 233.558 109.686 232.821C110.065 232.084 110.136 231.227 109.884 230.437L106.39 219.525C106.916 219.356 107.354 218.985 107.607 218.494C107.86 218.003 107.907 217.431 107.739 216.905L107.104 214.921C106.935 214.395 106.565 213.957 106.074 213.704C105.582 213.451 105.011 213.404 104.484 213.572ZM106.947 228.096L100.994 230.002L99.724 226.034L105.676 224.128L106.947 228.096ZM105.041 222.144L98.0967 224.367C97.8336 224.451 97.6147 224.637 97.4882 224.882C97.3617 225.128 97.338 225.414 97.4222 225.677L99.3279 231.629C99.4121 231.892 99.5974 232.111 99.843 232.238C100.089 232.364 100.374 232.388 100.638 232.304L107.582 230.08L107.9 231.072C107.984 231.336 107.96 231.621 107.834 231.867C107.707 232.113 107.488 232.298 107.225 232.382L99.2886 234.923C99.0255 235.007 98.7397 234.983 98.4941 234.857C98.2485 234.731 98.0632 234.512 97.9789 234.249L94.4853 223.336L104.406 220.16L105.041 222.144ZM91.8659 221.987L91.2307 220.003L105.12 215.556L105.755 217.54L91.8659 221.987Z" fill="#E2FFE9" fill-opacity="0.67"/>
</g>
<g clip-path="url(#clip2)">
<path d="M69.8025 26.6752L56.8957 19.8864C56.4066 19.6292 55.8355 19.5768 55.3078 19.7407C54.7802 19.9046 54.3392 20.2714 54.082 20.7605L53.1122 22.6043C52.855 23.0933 52.8026 23.6645 52.9665 24.1921C53.1304 24.7198 53.4972 25.1607 53.9862 25.418L48.6522 35.5591C48.2664 36.2926 48.1878 37.1493 48.4336 37.9408C48.6795 38.7323 49.2297 39.3937 49.9632 39.7795L57.3386 43.6588C58.0721 44.0446 58.9288 44.1232 59.7203 43.8774C60.5118 43.6315 61.1732 43.0813 61.5591 42.3478L66.8931 32.2067C67.3821 32.4639 67.9532 32.5163 68.4809 32.3524C69.0086 32.1885 69.4495 31.8217 69.7067 31.3327L70.6765 29.4888C70.9337 28.9998 70.9862 28.4286 70.8222 27.901C70.6583 27.3733 70.2915 26.9324 69.8025 26.6752ZM61.1699 38.6122L55.6384 35.7027L57.5781 32.0151L63.1096 34.9245L61.1699 38.6122ZM64.0794 33.0807L57.626 29.6863C57.3815 29.5577 57.0959 29.5315 56.8321 29.6135C56.5682 29.6954 56.3478 29.8788 56.2191 30.1233L53.3097 35.6549C53.1811 35.8994 53.1549 36.1849 53.2368 36.4488C53.3188 36.7126 53.5022 36.9331 53.7467 37.0617L60.2001 40.456L59.7152 41.378C59.5866 41.6225 59.3661 41.8059 59.1023 41.8878C58.8385 41.9698 58.5529 41.9436 58.3084 41.815L50.933 37.9357C50.6885 37.8071 50.5051 37.5866 50.4232 37.3228C50.3412 37.059 50.3674 36.7734 50.496 36.5289L55.83 26.3878L65.0492 31.2369L64.0794 33.0807ZM54.956 23.5741L55.9258 21.7303L68.8327 28.519L67.8629 30.3628L54.956 23.5741Z" fill="#E2FFE9" fill-opacity="0.67"/>
</g>
<path d="M19.4089 -0.366047L4.82931 -0.698054C4.27692 -0.710633 3.74216 -0.50326 3.34267 -0.121556C2.94317 0.260149 2.71167 0.784919 2.69909 1.33731L2.65166 3.4201C2.63908 3.97249 2.84646 4.50726 3.22816 4.90675C3.60986 5.30625 4.13463 5.53775 4.68703 5.55033L4.42616 17.0057C4.40729 17.8343 4.71835 18.6364 5.29091 19.2357C5.86347 19.8349 6.65062 20.1822 7.47921 20.201L15.8104 20.3907C16.639 20.4096 17.4411 20.0986 18.0404 19.526C18.6396 18.9534 18.9868 18.1663 19.0057 17.3377L19.2666 5.88233C19.819 5.89491 20.3537 5.68754 20.7532 5.30584C21.1527 4.92413 21.3842 4.39936 21.3968 3.84697L21.4442 1.76418C21.4568 1.21178 21.2494 0.677021 20.8677 0.277527C20.486 -0.121968 19.9613 -0.353468 19.4089 -0.366047ZM16.9941 14.1661L10.7457 14.0238L10.8405 9.8582L17.0889 10.0005L16.9941 14.1661ZM17.1364 7.9177L9.84658 7.75169C9.57038 7.7454 9.303 7.84909 9.10325 8.03994C8.90351 8.2308 8.78776 8.49318 8.78147 8.76938L8.63918 15.0178C8.63289 15.294 8.73658 15.5613 8.92743 15.7611C9.11828 15.9608 9.38067 16.0766 9.65686 16.0829L16.9466 16.2489L16.9229 17.2903C16.9166 17.5665 16.8009 17.8288 16.6011 18.0197C16.4014 18.2106 16.134 18.3142 15.8578 18.308L7.52664 18.1182C7.25044 18.1119 6.98806 17.9962 6.79721 17.7964C6.60635 17.5967 6.50267 17.3293 6.50896 17.0531L6.76982 5.59776L17.1838 5.8349L17.1364 7.9177ZM4.73446 3.46753L4.78188 1.38474L19.3614 1.71675L19.314 3.79954L4.73446 3.46753Z" fill="#E2FFE9" fill-opacity="0.67"/>
<g clip-path="url(#clip3)">
<path d="M180.803 41.6752L167.896 34.8864C167.407 34.6292 166.835 34.5768 166.308 34.7407C165.78 34.9046 165.339 35.2714 165.082 35.7605L164.112 37.6043C163.855 38.0933 163.803 38.6645 163.966 39.1921C164.13 39.7198 164.497 40.1607 164.986 40.418L159.652 50.5591C159.266 51.2926 159.188 52.1493 159.434 52.9408C159.679 53.7323 160.23 54.3937 160.963 54.7795L168.339 58.6588C169.072 59.0446 169.929 59.1232 170.72 58.8774C171.512 58.6315 172.173 58.0813 172.559 57.3478L177.893 47.2067C178.382 47.4639 178.953 47.5163 179.481 47.3524C180.009 47.1885 180.449 46.8217 180.707 46.3327L181.677 44.4888C181.934 43.9998 181.986 43.4286 181.822 42.901C181.658 42.3733 181.292 41.9324 180.803 41.6752ZM172.17 53.6122L166.638 50.7027L168.578 47.0151L174.11 49.9245L172.17 53.6122ZM175.079 48.0807L168.626 44.6863C168.381 44.5577 168.096 44.5315 167.832 44.6135C167.568 44.6954 167.348 44.8788 167.219 45.1233L164.31 50.6549C164.181 50.8994 164.155 51.1849 164.237 51.4488C164.319 51.7126 164.502 51.9331 164.747 52.0617L171.2 55.456L170.715 56.378C170.587 56.6225 170.366 56.8059 170.102 56.8878C169.838 56.9698 169.553 56.9436 169.308 56.815L161.933 52.9357C161.689 52.8071 161.505 52.5866 161.423 52.3228C161.341 52.059 161.367 51.7734 161.496 51.5289L166.83 41.3878L176.049 46.2369L175.079 48.0807ZM165.956 38.5741L166.926 36.7303L179.833 43.519L178.863 45.3628L165.956 38.5741Z" fill="#E2FFE9" fill-opacity="0.67"/>
</g>
<g clip-path="url(#clip4)">
<path d="M92.8025 137.675L79.8957 130.886C79.4066 130.629 78.8355 130.577 78.3078 130.741C77.7802 130.905 77.3392 131.271 77.082 131.76L76.1122 133.604C75.855 134.093 75.8026 134.664 75.9665 135.192C76.1304 135.72 76.4972 136.161 76.9862 136.418L71.6522 146.559C71.2664 147.293 71.1878 148.149 71.4336 148.941C71.6795 149.732 72.2297 150.394 72.9632 150.78L80.3386 154.659C81.0721 155.045 81.9288 155.123 82.7203 154.877C83.5118 154.632 84.1732 154.081 84.5591 153.348L89.8931 143.207C90.3821 143.464 90.9532 143.516 91.4809 143.352C92.0086 143.188 92.4495 142.822 92.7067 142.333L93.6765 140.489C93.9337 140 93.9862 139.429 93.8222 138.901C93.6583 138.373 93.2915 137.932 92.8025 137.675ZM84.1699 149.612L78.6384 146.703L80.5781 143.015L86.1096 145.925L84.1699 149.612ZM87.0794 144.081L80.626 140.686C80.3815 140.558 80.0959 140.532 79.8321 140.613C79.5682 140.695 79.3478 140.879 79.2191 141.123L76.3097 146.655C76.1811 146.899 76.1549 147.185 76.2368 147.449C76.3188 147.713 76.5022 147.933 76.7467 148.062L83.2001 151.456L82.7152 152.378C82.5866 152.622 82.3661 152.806 82.1023 152.888C81.8385 152.97 81.5529 152.944 81.3084 152.815L73.933 148.936C73.6885 148.807 73.5051 148.587 73.4232 148.323C73.3412 148.059 73.3674 147.773 73.496 147.529L78.83 137.388L88.0492 142.237L87.0794 144.081ZM77.956 134.574L78.9258 132.73L91.8327 139.519L90.8629 141.363L77.956 134.574Z" fill="#E2FFE9" fill-opacity="0.67"/>
</g>
<g clip-path="url(#clip5)">
<path d="M19.1845 140.057L6.27761 133.268C5.7886 133.011 5.21743 132.959 4.68977 133.123C4.16211 133.287 3.72117 133.653 3.46396 134.142L2.49414 135.986C2.23693 136.475 2.18451 137.046 2.34842 137.574C2.51233 138.102 2.87914 138.543 3.36816 138.8L-1.96584 148.941C-2.35166 149.675 -2.43028 150.531 -2.18441 151.323C-1.93855 152.114 -1.38833 152.776 -0.654811 153.161L6.72053 157.041C7.45406 157.427 8.3108 157.505 9.1023 157.259C9.89379 157.013 10.5552 156.463 10.941 155.73L16.275 145.589C16.764 145.846 17.3352 145.898 17.8629 145.734C18.3905 145.57 18.8315 145.204 19.0887 144.715L20.0585 142.871C20.3157 142.382 20.3681 141.811 20.2042 141.283C20.0403 140.755 19.6735 140.314 19.1845 140.057ZM10.5519 151.994L5.0204 149.085L6.96003 145.397L12.4915 148.306L10.5519 151.994ZM13.4614 146.463L7.00793 143.068C6.76342 142.94 6.47784 142.913 6.21401 142.995C5.95018 143.077 5.72971 143.261 5.6011 143.505L2.69165 149.037C2.56305 149.281 2.53684 149.567 2.61879 149.831C2.70075 150.095 2.88415 150.315 3.12866 150.444L9.58209 153.838L9.09718 154.76C8.96857 155.004 8.7481 155.188 8.48427 155.27C8.22044 155.352 7.93486 155.326 7.69035 155.197L0.315007 151.318C0.0704989 151.189 -0.112906 150.969 -0.194861 150.705C-0.276817 150.441 -0.250608 150.155 -0.122002 149.911L5.212 139.77L14.4312 144.619L13.4614 146.463ZM4.33798 136.956L5.3078 135.112L18.2146 141.901L17.2448 143.745L4.33798 136.956Z" fill="#E2FFE9" fill-opacity="0.67"/>
</g>
<g clip-path="url(#clip6)">
<path d="M110.268 21.3561L96.3795 25.8026C95.8532 25.9711 95.4155 26.3417 95.1625 26.8329C94.9095 27.3241 94.8621 27.8957 95.0305 28.4219L95.6657 30.4061C95.8342 30.9323 96.2048 31.37 96.696 31.623C97.1873 31.876 97.7589 31.9235 98.2851 31.755L101.779 42.6677C102.031 43.4571 102.587 44.1137 103.324 44.4932C104.061 44.8726 104.918 44.9438 105.708 44.6911L113.644 42.1503C114.434 41.8976 115.09 41.3417 115.47 40.6048C115.849 39.868 115.92 39.0106 115.668 38.2213L112.174 27.3085C112.7 27.1401 113.138 26.7695 113.391 26.2782C113.644 25.787 113.691 25.2154 113.523 24.6892L112.888 22.7051C112.719 22.1788 112.349 21.7411 111.857 21.4881C111.366 21.2351 110.795 21.1877 110.268 21.3561ZM112.731 35.8803L106.778 37.7859L105.508 33.8176L111.46 31.912L112.731 35.8803ZM110.825 29.9279L103.881 32.1511C103.618 32.2353 103.399 32.4206 103.272 32.6663C103.146 32.9119 103.122 33.1977 103.206 33.4608L105.112 39.4132C105.196 39.6763 105.381 39.8952 105.627 40.0217C105.873 40.1481 106.158 40.1719 106.421 40.0876L113.366 37.8644L113.684 38.8565C113.768 39.1196 113.744 39.4054 113.618 39.651C113.491 39.8966 113.272 40.0819 113.009 40.1661L105.073 42.707C104.809 42.7912 104.524 42.7675 104.278 42.641C104.032 42.5145 103.847 42.2956 103.763 42.0325L100.269 31.1198L110.19 27.9437L110.825 29.9279ZM97.6499 29.7709L97.0147 27.7867L110.904 23.3403L111.539 25.3244L97.6499 29.7709Z" fill="#E2FFE9" fill-opacity="0.67"/>
</g>
<g clip-path="url(#clip7)">
<path d="M221.268 36.3561L207.379 40.8026C206.853 40.9711 206.416 41.3417 206.163 41.8329C205.91 42.3241 205.862 42.8957 206.031 43.4219L206.666 45.4061C206.834 45.9323 207.205 46.37 207.696 46.623C208.187 46.876 208.759 46.9235 209.285 46.755L212.779 57.6677C213.031 58.4571 213.587 59.1137 214.324 59.4932C215.061 59.8726 215.918 59.9438 216.708 59.6911L224.644 57.1503C225.434 56.8976 226.09 56.3417 226.47 55.6048C226.849 54.868 226.92 54.0106 226.668 53.2213L223.174 42.3085C223.7 42.1401 224.138 41.7695 224.391 41.2782C224.644 40.787 224.691 40.2154 224.523 39.6892L223.888 37.7051C223.719 37.1788 223.349 36.7411 222.857 36.4881C222.366 36.2351 221.795 36.1877 221.268 36.3561ZM223.731 50.8803L217.778 52.7859L216.508 48.8176L222.46 46.912L223.731 50.8803ZM221.825 44.9279L214.881 47.1511C214.618 47.2353 214.399 47.4206 214.272 47.6663C214.146 47.9119 214.122 48.1977 214.206 48.4608L216.112 54.4132C216.196 54.6763 216.381 54.8952 216.627 55.0217C216.873 55.1481 217.158 55.1719 217.422 55.0876L224.366 52.8644L224.684 53.8565C224.768 54.1196 224.744 54.4054 224.618 54.651C224.491 54.8966 224.272 55.0819 224.009 55.1661L216.073 57.707C215.809 57.7912 215.524 57.7675 215.278 57.641C215.032 57.5145 214.847 57.2956 214.763 57.0325L211.269 46.1198L221.19 42.9437L221.825 44.9279ZM208.65 44.7709L208.015 42.7867L221.904 38.3403L222.539 40.3244L208.65 44.7709Z" fill="#E2FFE9" fill-opacity="0.67"/>
</g>
<g clip-path="url(#clip8)">
<path d="M133.268 132.356L119.379 136.803C118.853 136.971 118.415 137.342 118.163 137.833C117.91 138.324 117.862 138.896 118.031 139.422L118.666 141.406C118.834 141.932 119.205 142.37 119.696 142.623C120.187 142.876 120.759 142.923 121.285 142.755L124.779 153.668C125.031 154.457 125.587 155.114 126.324 155.493C127.061 155.873 127.918 155.944 128.708 155.691L136.644 153.15C137.434 152.898 138.09 152.342 138.47 151.605C138.849 150.868 138.92 150.011 138.668 149.221L135.174 138.309C135.7 138.14 136.138 137.769 136.391 137.278C136.644 136.787 136.691 136.215 136.523 135.689L135.888 133.705C135.719 133.179 135.349 132.741 134.857 132.488C134.366 132.235 133.795 132.188 133.268 132.356ZM135.731 146.88L129.778 148.786L128.508 144.818L134.46 142.912L135.731 146.88ZM133.825 140.928L126.881 143.151C126.618 143.235 126.399 143.421 126.272 143.666C126.146 143.912 126.122 144.198 126.206 144.461L128.112 150.413C128.196 150.676 128.381 150.895 128.627 151.022C128.873 151.148 129.158 151.172 129.421 151.088L136.366 148.864L136.684 149.856C136.768 150.12 136.744 150.405 136.618 150.651C136.491 150.897 136.272 151.082 136.009 151.166L128.073 153.707C127.809 153.791 127.524 153.767 127.278 153.641C127.032 153.515 126.847 153.296 126.763 153.033L123.269 142.12L133.19 138.944L133.825 140.928ZM120.65 140.771L120.015 138.787L133.904 134.34L134.539 136.324L120.65 140.771Z" fill="#E2FFE9" fill-opacity="0.67"/>
</g>
<g clip-path="url(#clip9)">
<path d="M184.57 132.093L171.208 126.251C170.702 126.029 170.129 126.018 169.614 126.22C169.1 126.421 168.686 126.819 168.465 127.325L167.63 129.234C167.409 129.74 167.398 130.313 167.599 130.828C167.801 131.342 168.198 131.756 168.704 131.977L164.114 142.476C163.782 143.235 163.765 144.095 164.067 144.867C164.369 145.639 164.966 146.259 165.725 146.591L173.36 149.93C174.12 150.262 174.98 150.278 175.752 149.976C176.524 149.674 177.144 149.078 177.476 148.318L182.066 137.82C182.573 138.041 183.146 138.052 183.66 137.851C184.175 137.649 184.588 137.252 184.81 136.746L185.644 134.837C185.866 134.33 185.877 133.757 185.676 133.242C185.474 132.728 185.076 132.315 184.57 132.093ZM176.819 144.62L171.092 142.116L172.762 138.299L178.488 140.803L176.819 144.62ZM179.323 138.894L172.642 135.973C172.389 135.862 172.102 135.856 171.845 135.957C171.588 136.058 171.381 136.257 171.27 136.51L168.766 142.236C168.656 142.489 168.65 142.776 168.751 143.033C168.851 143.291 169.05 143.497 169.303 143.608L175.984 146.529L175.567 147.484C175.456 147.737 175.249 147.936 174.992 148.036C174.735 148.137 174.448 148.131 174.195 148.021L166.56 144.682C166.307 144.571 166.108 144.365 166.007 144.107C165.906 143.85 165.912 143.564 166.023 143.31L170.613 132.812L180.157 136.985L179.323 138.894ZM169.539 130.068L170.374 128.159L183.736 134.002L182.901 135.911L169.539 130.068Z" fill="#E2FFE9" fill-opacity="0.67"/>
</g>
<g clip-path="url(#clip10)">
<path d="M91.4845 62.5722L77.5955 67.0187C77.0693 67.1871 76.6315 67.5577 76.3786 68.049C76.1256 68.5402 76.0781 69.1118 76.2466 69.638L76.8818 71.6221C77.0503 72.1484 77.4209 72.5861 77.9121 72.8391C78.4033 73.0921 78.9749 73.1395 79.5012 72.9711L82.9948 83.8838C83.2475 84.6731 83.8034 85.3298 84.5403 85.7092C85.2771 86.0887 86.1345 86.1599 86.9238 85.9072L94.8604 83.3663C95.6497 83.1136 96.3063 82.5577 96.6858 81.8209C97.0652 81.0841 97.1364 80.2267 96.8837 79.4373L93.3901 68.5246C93.9163 68.3561 94.3541 67.9855 94.607 67.4943C94.86 67.0031 94.9075 66.4315 94.739 65.9053L94.1038 63.9211C93.9353 63.3949 93.5647 62.9571 93.0735 62.7042C92.5823 62.4512 92.0107 62.4037 91.4845 62.5722ZM93.9468 77.0963L87.9944 79.002L86.724 75.0337L92.6764 73.1281L93.9468 77.0963ZM92.0412 71.1439L85.0967 73.3672C84.8336 73.4514 84.6147 73.6367 84.4882 73.8823C84.3617 74.1279 84.338 74.4137 84.4222 74.6768L86.3279 80.6292C86.4121 80.8924 86.5974 81.1112 86.843 81.2377C87.0886 81.3642 87.3744 81.3879 87.6375 81.3037L94.582 79.0805L94.8996 80.0725C94.9838 80.3357 94.9601 80.6215 94.8336 80.8671C94.7071 81.1127 94.4883 81.298 94.2251 81.3822L86.2886 83.9231C86.0255 84.0073 85.7397 83.9835 85.4941 83.8571C85.2485 83.7306 85.0632 83.5117 84.9789 83.2486L81.4853 72.3359L91.406 69.1598L92.0412 71.1439ZM78.8659 70.9869L78.2307 69.0028L92.1197 64.5563L92.7549 66.5405L78.8659 70.9869Z" fill="#E2FFE9" fill-opacity="0.67"/>
</g>
<path d="M203.86 74.2918L189.288 74.8802C188.736 74.9025 188.215 75.1432 187.841 75.5494C187.466 75.9555 187.268 76.4938 187.291 77.0459L187.375 79.1276C187.397 79.6797 187.638 80.2003 188.044 80.5749C188.45 80.9495 188.988 81.1474 189.54 81.1251L190.003 92.5741C190.036 93.4023 190.397 94.1832 191.006 94.7451C191.616 95.3071 192.423 95.604 193.251 95.5705L201.578 95.2343C202.406 95.2008 203.187 94.8398 203.749 94.2306C204.311 93.6213 204.608 92.8138 204.574 91.9857L204.112 80.5367C204.664 80.5144 205.184 80.2737 205.559 79.8676C205.934 79.4614 206.132 78.9231 206.109 78.371L206.025 76.2894C206.003 75.7373 205.762 75.2167 205.356 74.8421C204.95 74.4674 204.412 74.2695 203.86 74.2918ZM202.366 88.9473L196.121 89.1995L195.953 85.0362L202.198 84.7841L202.366 88.9473ZM202.114 82.7024L194.828 82.9966C194.552 83.0078 194.292 83.1281 194.105 83.3312C193.918 83.5343 193.819 83.8034 193.83 84.0795L194.082 90.3244C194.093 90.6004 194.213 90.8607 194.416 91.048C194.62 91.2354 194.889 91.3343 195.165 91.3232L202.45 91.029L202.492 92.0698C202.504 92.3458 202.405 92.615 202.217 92.8181C202.03 93.0211 201.77 93.1415 201.494 93.1526L193.167 93.4889C192.891 93.5 192.622 93.4011 192.419 93.2137C192.216 93.0264 192.095 92.7661 192.084 92.4901L191.622 81.0411L202.03 80.6208L202.114 82.7024ZM189.456 79.0435L189.372 76.9619L203.944 76.3734L204.028 78.4551L189.456 79.0435Z" fill="#E2FFE9" fill-opacity="0.67"/>
<g clip-path="url(#clip11)">
<path d="M114.484 173.572L100.596 178.019C100.069 178.187 99.6315 178.558 99.3786 179.049C99.1256 179.54 99.0781 180.112 99.2466 180.638L99.8818 182.622C100.05 183.148 100.421 183.586 100.912 183.839C101.403 184.092 101.975 184.14 102.501 183.971L105.995 194.884C106.248 195.673 106.803 196.33 107.54 196.709C108.277 197.089 109.134 197.16 109.924 196.907L117.86 194.366C118.65 194.114 119.306 193.558 119.686 192.821C120.065 192.084 120.136 191.227 119.884 190.437L116.39 179.525C116.916 179.356 117.354 178.986 117.607 178.494C117.86 178.003 117.907 177.431 117.739 176.905L117.104 174.921C116.935 174.395 116.565 173.957 116.074 173.704C115.582 173.451 115.011 173.404 114.484 173.572ZM116.947 188.096L110.994 190.002L109.724 186.034L115.676 184.128L116.947 188.096ZM115.041 182.144L108.097 184.367C107.834 184.451 107.615 184.637 107.488 184.882C107.362 185.128 107.338 185.414 107.422 185.677L109.328 191.629C109.412 191.892 109.597 192.111 109.843 192.238C110.089 192.364 110.374 192.388 110.638 192.304L117.582 190.08L117.9 191.073C117.984 191.336 117.96 191.621 117.834 191.867C117.707 192.113 117.488 192.298 117.225 192.382L109.289 194.923C109.025 195.007 108.74 194.984 108.494 194.857C108.248 194.731 108.063 194.512 107.979 194.249L104.485 183.336L114.406 180.16L115.041 182.144ZM101.866 181.987L101.231 180.003L115.12 175.556L115.755 177.54L101.866 181.987Z" fill="#E2FFE9" fill-opacity="0.67"/>
</g>
<g clip-path="url(#clip12)">
<path d="M11.4845 184.572L-2.40448 189.019C-2.9307 189.187 -3.36845 189.558 -3.62142 190.049C-3.8744 190.54 -3.92187 191.112 -3.7534 191.638L-3.11819 193.622C-2.94972 194.148 -2.57911 194.586 -2.08789 194.839C-1.59667 195.092 -1.02507 195.139 -0.498848 194.971L2.9948 205.884C3.24751 206.673 3.80342 207.33 4.54026 207.709C5.27709 208.089 6.13448 208.16 6.92382 207.907L14.8604 205.366C15.6497 205.114 16.3063 204.558 16.6858 203.821C17.0652 203.084 17.1364 202.227 16.8837 201.437L13.3901 190.525C13.9163 190.356 14.3541 189.985 14.607 189.494C14.86 189.003 14.9075 188.431 14.739 187.905L14.1038 185.921C13.9353 185.395 13.5647 184.957 13.0735 184.704C12.5823 184.451 12.0107 184.404 11.4845 184.572ZM13.9468 199.096L7.99439 201.002L6.72397 197.034L12.6764 195.128L13.9468 199.096ZM12.0412 193.144L5.0967 195.367C4.83358 195.451 4.61471 195.637 4.48822 195.882C4.36174 196.128 4.338 196.414 4.42223 196.677L6.32786 202.629C6.4121 202.892 6.5974 203.111 6.84301 203.238C7.08862 203.364 7.37442 203.388 7.63753 203.304L14.582 201.08L14.8996 202.072C14.9838 202.336 14.9601 202.621 14.8336 202.867C14.7071 203.113 14.4883 203.298 14.2251 203.382L6.28861 205.923C6.0255 206.007 5.7397 205.983 5.49409 205.857C5.24848 205.731 5.06317 205.512 4.97894 205.249L1.48529 194.336L11.406 191.16L12.0412 193.144ZM-1.13406 192.987L-1.76927 191.003L12.1197 186.556L12.7549 188.54L-1.13406 192.987Z" fill="#E2FFE9" fill-opacity="0.67"/>
</g>
<g clip-path="url(#clip13)">
<path d="M25.4845 42.5721L11.5955 47.0186C11.0693 47.1871 10.6315 47.5577 10.3786 48.0489C10.1256 48.5401 10.0781 49.1117 10.2466 49.6379L10.8818 51.6221C11.0503 52.1483 11.4209 52.586 11.9121 52.839C12.4033 53.092 12.9749 53.1395 13.5012 52.971L16.9948 63.8837C17.2475 64.6731 17.8034 65.3297 18.5403 65.7092C19.2771 66.0886 20.1345 66.1598 20.9238 65.9071L28.8604 63.3663C29.6497 63.1136 30.3063 62.5577 30.6858 61.8208C31.0652 61.084 31.1364 60.2266 30.8837 59.4373L27.3901 48.5245C27.9163 48.3561 28.3541 47.9855 28.607 47.4942C28.86 47.003 28.9075 46.4314 28.739 45.9052L28.1038 43.9211C27.9353 43.3948 27.5647 42.9571 27.0735 42.7041C26.5823 42.4511 26.0107 42.4037 25.4845 42.5721ZM27.9468 57.0963L21.9944 59.0019L20.724 55.0336L26.6764 53.128L27.9468 57.0963ZM26.0412 51.1439L19.0967 53.3671C18.8336 53.4513 18.6147 53.6366 18.4882 53.8823C18.3617 54.1279 18.338 54.4137 18.4222 54.6768L20.3279 60.6292C20.4121 60.8923 20.5974 61.1112 20.843 61.2377C21.0886 61.3641 21.3744 61.3879 21.6375 61.3036L28.582 59.0804L28.8996 60.0725C28.9838 60.3356 28.9601 60.6214 28.8336 60.867C28.7071 61.1126 28.4883 61.2979 28.2251 61.3822L20.2886 63.923C20.0255 64.0072 19.7397 63.9835 19.4941 63.857C19.2485 63.7305 19.0632 63.5116 18.9789 63.2485L15.4853 52.3358L25.406 49.1597L26.0412 51.1439ZM12.8659 50.9869L12.2307 49.0027L26.1197 44.5563L26.7549 46.5404L12.8659 50.9869Z" fill="#E2FFE9" fill-opacity="0.67"/>
</g>
<g clip-path="url(#clip14)">
<path d="M48.4845 108.572L34.5955 113.019C34.0693 113.187 33.6315 113.558 33.3786 114.049C33.1256 114.54 33.0781 115.112 33.2466 115.638L33.8818 117.622C34.0503 118.148 34.4209 118.586 34.9121 118.839C35.4033 119.092 35.9749 119.14 36.5012 118.971L39.9948 129.884C40.2475 130.673 40.8034 131.33 41.5403 131.709C42.2771 132.089 43.1345 132.16 43.9238 131.907L51.8604 129.366C52.6497 129.114 53.3063 128.558 53.6858 127.821C54.0652 127.084 54.1364 126.227 53.8837 125.437L50.3901 114.525C50.9163 114.356 51.3541 113.986 51.607 113.494C51.86 113.003 51.9075 112.431 51.739 111.905L51.1038 109.921C50.9353 109.395 50.5647 108.957 50.0735 108.704C49.5823 108.451 49.0107 108.404 48.4845 108.572ZM50.9468 123.096L44.9944 125.002L43.724 121.034L49.6764 119.128L50.9468 123.096ZM49.0412 117.144L42.0967 119.367C41.8336 119.451 41.6147 119.637 41.4882 119.882C41.3617 120.128 41.338 120.414 41.4222 120.677L43.3279 126.629C43.4121 126.892 43.5974 127.111 43.843 127.238C44.0886 127.364 44.3744 127.388 44.6375 127.304L51.582 125.08L51.8996 126.073C51.9838 126.336 51.9601 126.621 51.8336 126.867C51.7071 127.113 51.4883 127.298 51.2251 127.382L43.2886 129.923C43.0255 130.007 42.7397 129.984 42.4941 129.857C42.2485 129.731 42.0632 129.512 41.9789 129.249L38.4853 118.336L48.406 115.16L49.0412 117.144ZM35.8659 116.987L35.2307 115.003L49.1197 110.556L49.7549 112.54L35.8659 116.987Z" fill="#E2FFE9" fill-opacity="0.67"/>
</g>
<g clip-path="url(#clip15)">
<path d="M141.485 60.5081L127.066 58.3253C126.519 58.2426 125.963 58.3803 125.518 58.7081C125.073 59.0359 124.777 59.527 124.694 60.0733L124.382 62.1332C124.299 62.6795 124.437 63.2363 124.765 63.681C125.093 64.1258 125.584 64.4221 126.13 64.5049L124.415 75.8341C124.291 76.6536 124.498 77.4888 124.989 78.1559C125.481 78.8231 126.218 79.2676 127.037 79.3916L135.277 80.639C136.096 80.763 136.931 80.5565 137.598 80.0647C138.266 79.573 138.71 78.8364 138.834 78.0169L140.549 66.6877C141.096 66.7704 141.652 66.6327 142.097 66.3049C142.542 65.977 142.838 65.486 142.921 64.9397L143.233 62.8798C143.316 62.3335 143.178 61.7767 142.85 61.3319C142.522 60.8871 142.031 60.5908 141.485 60.5081ZM137.242 74.6153L131.062 73.6798L131.686 69.5601L137.866 70.4956L137.242 74.6153ZM138.178 68.4357L130.968 67.3443C130.695 67.3029 130.417 67.3718 130.194 67.5357C129.972 67.6996 129.824 67.9452 129.782 68.2183L128.847 74.3979C128.805 74.6711 128.874 74.9495 129.038 75.1718C129.202 75.3942 129.448 75.5424 129.721 75.5838L136.93 76.6752L136.774 77.7051C136.733 77.9783 136.585 78.2238 136.362 78.3877C136.14 78.5516 135.862 78.6205 135.588 78.5791L127.349 77.3318C127.076 77.2904 126.83 77.1423 126.666 76.9199C126.503 76.6975 126.434 76.4191 126.475 76.1459L128.19 64.8167L138.489 66.3758L138.178 68.4357ZM126.442 62.445L126.754 60.3851L141.173 62.568L140.861 64.6278L126.442 62.445Z" fill="#E2FFE9" fill-opacity="0.67"/>
</g>
<g clip-path="url(#clip16)">
<path d="M48.4845 153.572L34.5955 158.019C34.0693 158.187 33.6315 158.558 33.3786 159.049C33.1256 159.54 33.0781 160.112 33.2466 160.638L33.8818 162.622C34.0503 163.148 34.4209 163.586 34.9121 163.839C35.4033 164.092 35.9749 164.139 36.5012 163.971L39.9948 174.884C40.2475 175.673 40.8034 176.33 41.5403 176.709C42.2771 177.089 43.1345 177.16 43.9238 176.907L51.8604 174.366C52.6497 174.114 53.3063 173.558 53.6858 172.821C54.0652 172.084 54.1364 171.227 53.8837 170.437L50.3901 159.525C50.9163 159.356 51.3541 158.985 51.607 158.494C51.86 158.003 51.9075 157.431 51.739 156.905L51.1038 154.921C50.9353 154.395 50.5647 153.957 50.0735 153.704C49.5823 153.451 49.0107 153.404 48.4845 153.572ZM50.9468 168.096L44.9944 170.002L43.724 166.034L49.6764 164.128L50.9468 168.096ZM49.0412 162.144L42.0967 164.367C41.8336 164.451 41.6147 164.637 41.4882 164.882C41.3617 165.128 41.338 165.414 41.4222 165.677L43.3279 171.629C43.4121 171.892 43.5974 172.111 43.843 172.238C44.0886 172.364 44.3744 172.388 44.6375 172.304L51.582 170.08L51.8996 171.072C51.9838 171.336 51.9601 171.621 51.8336 171.867C51.7071 172.113 51.4883 172.298 51.2251 172.382L43.2886 174.923C43.0255 175.007 42.7397 174.983 42.4941 174.857C42.2485 174.731 42.0632 174.512 41.9789 174.249L38.4853 163.336L48.406 160.16L49.0412 162.144ZM35.8659 161.987L35.2307 160.003L49.1197 155.556L49.7549 157.54L35.8659 161.987Z" fill="#E2FFE9" fill-opacity="0.67"/>
</g>
<g clip-path="url(#clip17)">
<path d="M85.4845 -11.4278L71.5955 -6.98134C71.0693 -6.81287 70.6315 -6.44226 70.3786 -5.95104C70.1256 -5.45982 70.0781 -4.88822 70.2466 -4.362L70.8818 -2.37786C71.0503 -1.85164 71.4209 -1.41389 71.9121 -1.16092C72.4033 -0.907944 72.9749 -0.86047 73.5012 -1.02894L76.9948 9.8838C77.2475 10.6731 77.8034 11.3298 78.5403 11.7092C79.2771 12.0887 80.1345 12.1599 80.9238 11.9072L88.8604 9.36635C89.6497 9.11364 90.3063 8.55773 90.6858 7.82089C91.0652 7.08406 91.1364 6.22667 90.8837 5.43733L87.3901 -5.47541C87.9163 -5.64387 88.3541 -6.01448 88.607 -6.50571C88.86 -6.99693 88.9075 -7.56852 88.739 -8.09475L88.1038 -10.0789C87.9353 -10.6051 87.5647 -11.0429 87.0735 -11.2958C86.5823 -11.5488 86.0107 -11.5963 85.4845 -11.4278ZM87.9468 3.09634L81.9944 5.00197L80.724 1.0337L86.6764 -0.871928L87.9468 3.09634ZM86.0412 -2.85606L79.0967 -0.632829C78.8336 -0.548594 78.6147 -0.363289 78.4882 -0.117678C78.3617 0.127932 78.338 0.413731 78.4222 0.676843L80.3279 6.62924C80.4121 6.89236 80.5974 7.11123 80.843 7.23772C81.0886 7.36421 81.3744 7.38794 81.6375 7.30371L88.582 5.08047L88.8996 6.07254C88.9838 6.33565 88.9601 6.62145 88.8336 6.86706C88.7071 7.11267 88.4883 7.29798 88.2251 7.38221L80.2886 9.92305C80.0255 10.0073 79.7397 9.98355 79.4941 9.85706C79.2485 9.73058 79.0632 9.5117 78.9789 9.24859L75.4853 -1.66415L85.406 -4.8402L86.0412 -2.85606ZM72.8659 -3.01307L72.2307 -4.99721L86.1197 -9.44367L86.7549 -7.45954L72.8659 -3.01307Z" fill="#E2FFE9" fill-opacity="0.67"/>
</g>
<g clip-path="url(#clip18)">
<path d="M196.484 3.57219L182.596 8.01866C182.069 8.18713 181.632 8.55774 181.379 9.04896C181.126 9.54018 181.078 10.1118 181.247 10.638L181.882 12.6221C182.05 13.1484 182.421 13.5861 182.912 13.8391C183.403 14.0921 183.975 14.1395 184.501 13.9711L187.995 24.8838C188.248 25.6731 188.803 26.3298 189.54 26.7092C190.277 27.0887 191.134 27.1599 191.924 26.9072L199.86 24.3663C200.65 24.1136 201.306 23.5577 201.686 22.8209C202.065 22.0841 202.136 21.2267 201.884 20.4373L198.39 9.52459C198.916 9.35613 199.354 8.98552 199.607 8.49429C199.86 8.00307 199.907 7.43148 199.739 6.90525L199.104 4.92112C198.935 4.39489 198.565 3.95714 198.074 3.70417C197.582 3.4512 197.011 3.40372 196.484 3.57219ZM198.947 18.0963L192.994 20.002L191.724 16.0337L197.676 14.1281L198.947 18.0963ZM197.041 12.1439L190.097 14.3672C189.834 14.4514 189.615 14.6367 189.488 14.8823C189.362 15.1279 189.338 15.4137 189.422 15.6768L191.328 21.6292C191.412 21.8924 191.597 22.1112 191.843 22.2377C192.089 22.3642 192.374 22.3879 192.638 22.3037L199.582 20.0805L199.9 21.0725C199.984 21.3357 199.96 21.6215 199.834 21.8671C199.707 22.1127 199.488 22.298 199.225 22.3822L191.289 24.9231C191.025 25.0073 190.74 24.9835 190.494 24.8571C190.248 24.7306 190.063 24.5117 189.979 24.2486L186.485 13.3359L196.406 10.1598L197.041 12.1439ZM183.866 11.9869L183.231 10.0028L197.12 5.55633L197.755 7.54046L183.866 11.9869Z" fill="#E2FFE9" fill-opacity="0.67"/>
</g>
<g clip-path="url(#clip19)">
<path d="M156.911 6.68792L143.884 0.133598C143.39 -0.114733 142.818 -0.156817 142.294 0.0166039C141.769 0.190025 141.335 0.564745 141.087 1.05833L140.15 2.91939C139.902 3.41298 139.86 3.985 140.033 4.50961C140.207 5.03422 140.581 5.46846 141.075 5.71679L135.925 15.9526C135.553 16.693 135.49 17.5511 135.75 18.338C136.01 19.1249 136.572 19.7762 137.312 20.1487L144.757 23.8941C145.497 24.2666 146.355 24.3297 147.142 24.0696C147.929 23.8094 148.58 23.2473 148.953 22.507L154.102 12.2711C154.596 12.5194 155.168 12.5615 155.693 12.3881C156.217 12.2147 156.652 11.84 156.9 11.3464L157.836 9.48532C158.085 8.99173 158.127 8.41972 157.953 7.8951C157.78 7.37049 157.405 6.93625 156.911 6.68792ZM148.496 18.779L142.913 15.97L144.786 12.2479L150.369 15.0569L148.496 18.779ZM151.305 13.1958L144.791 9.91869C144.545 9.79452 144.259 9.77348 143.996 9.86019C143.734 9.9469 143.517 10.1343 143.393 10.3811L140.584 15.9642C140.459 16.211 140.438 16.497 140.525 16.7594C140.612 17.0217 140.799 17.2388 141.046 17.3629L147.56 20.6401L147.092 21.5706C146.967 21.8174 146.75 22.0048 146.488 22.0915C146.226 22.1782 145.94 22.1572 145.693 22.033L138.249 18.2877C138.002 18.1635 137.814 17.9464 137.728 17.6841C137.641 17.4218 137.662 17.1358 137.786 16.889L142.936 6.65312L152.241 11.3348L151.305 13.1958ZM142.011 3.85573L142.948 1.99466L155.975 8.54899L155.039 10.4101L142.011 3.85573Z" fill="#E2FFE9" fill-opacity="0.67"/>
</g>
<g clip-path="url(#clip20)">
<path d="M229.704 110.736L215.254 108.767C214.706 108.693 214.152 108.839 213.712 109.173C213.272 109.507 212.983 110.003 212.908 110.55L212.627 112.615C212.553 113.162 212.699 113.717 213.033 114.157C213.367 114.597 213.863 114.886 214.41 114.96L212.864 126.314C212.752 127.135 212.971 127.967 213.472 128.627C213.974 129.286 214.717 129.72 215.538 129.832L223.795 130.957C224.617 131.068 225.449 130.849 226.108 130.348C226.768 129.846 227.202 129.103 227.314 128.282L228.86 116.928C229.408 117.003 229.962 116.857 230.402 116.523C230.842 116.188 231.131 115.693 231.206 115.145L231.487 113.081C231.561 112.534 231.415 111.979 231.081 111.539C230.747 111.099 230.251 110.81 229.704 110.736ZM225.671 124.904L219.478 124.061L220.041 119.932L226.233 120.776L225.671 124.904ZM226.515 118.712L219.29 117.727C219.016 117.69 218.739 117.763 218.519 117.93C218.299 118.097 218.154 118.345 218.117 118.619L217.273 124.812C217.236 125.085 217.309 125.363 217.476 125.583C217.643 125.803 217.891 125.947 218.165 125.984L225.39 126.969L225.249 128.001C225.212 128.275 225.067 128.522 224.848 128.689C224.628 128.857 224.35 128.93 224.077 128.892L215.819 127.768C215.546 127.73 215.298 127.586 215.131 127.366C214.964 127.146 214.891 126.869 214.928 126.595L216.475 115.241L226.796 116.647L226.515 118.712ZM214.691 112.896L214.973 110.832L229.423 112.8L229.141 114.864L214.691 112.896Z" fill="#E2FFE9" fill-opacity="0.67"/>
</g>
<g clip-path="url(#clip21)">
<path d="M166.704 171.736L152.254 169.767C151.706 169.693 151.152 169.839 150.712 170.173C150.272 170.507 149.983 171.003 149.908 171.55L149.627 173.615C149.553 174.162 149.699 174.717 150.033 175.157C150.367 175.597 150.863 175.886 151.41 175.96L149.864 187.314C149.752 188.135 149.971 188.967 150.472 189.627C150.974 190.286 151.717 190.72 152.538 190.832L160.795 191.957C161.617 192.068 162.449 191.849 163.108 191.348C163.768 190.846 164.202 190.103 164.314 189.282L165.86 177.928C166.408 178.003 166.962 177.857 167.402 177.523C167.842 177.188 168.131 176.693 168.206 176.145L168.487 174.081C168.561 173.534 168.415 172.979 168.081 172.539C167.747 172.099 167.251 171.81 166.704 171.736ZM162.671 185.904L156.478 185.061L157.041 180.932L163.233 181.776L162.671 185.904ZM163.515 179.712L156.29 178.727C156.016 178.69 155.739 178.763 155.519 178.93C155.299 179.097 155.154 179.345 155.117 179.619L154.273 185.812C154.236 186.085 154.309 186.363 154.476 186.583C154.643 186.803 154.891 186.947 155.165 186.984L162.39 187.969L162.249 189.001C162.212 189.275 162.067 189.522 161.848 189.689C161.628 189.857 161.35 189.93 161.077 189.892L152.819 188.768C152.546 188.73 152.298 188.586 152.131 188.366C151.964 188.146 151.891 187.869 151.928 187.595L153.475 176.241L163.796 177.647L163.515 179.712ZM151.691 173.896L151.973 171.832L166.423 173.8L166.141 175.864L151.691 173.896Z" fill="#E2FFE9" fill-opacity="0.67"/>
</g>
<g clip-path="url(#clip22)">
<path d="M108.484 99.5722L94.5955 104.019C94.0693 104.187 93.6315 104.558 93.3786 105.049C93.1256 105.54 93.0781 106.112 93.2466 106.638L93.8818 108.622C94.0503 109.148 94.4209 109.586 94.9121 109.839C95.4033 110.092 95.9749 110.14 96.5012 109.971L99.9948 120.884C100.248 121.673 100.803 122.33 101.54 122.709C102.277 123.089 103.134 123.16 103.924 122.907L111.86 120.366C112.65 120.114 113.306 119.558 113.686 118.821C114.065 118.084 114.136 117.227 113.884 116.437L110.39 105.525C110.916 105.356 111.354 104.986 111.607 104.494C111.86 104.003 111.907 103.431 111.739 102.905L111.104 100.921C110.935 100.395 110.565 99.9571 110.074 99.7042C109.582 99.4512 109.011 99.4037 108.484 99.5722ZM110.947 114.096L104.994 116.002L103.724 112.034L109.676 110.128L110.947 114.096ZM109.041 108.144L102.097 110.367C101.834 110.451 101.615 110.637 101.488 110.882C101.362 111.128 101.338 111.414 101.422 111.677L103.328 117.629C103.412 117.892 103.597 118.111 103.843 118.238C104.089 118.364 104.374 118.388 104.638 118.304L111.582 116.08L111.9 117.073C111.984 117.336 111.96 117.621 111.834 117.867C111.707 118.113 111.488 118.298 111.225 118.382L103.289 120.923C103.025 121.007 102.74 120.984 102.494 120.857C102.248 120.731 102.063 120.512 101.979 120.249L98.4853 109.336L108.406 106.16L109.041 108.144ZM95.8659 107.987L95.2307 106.003L109.12 101.556L109.755 103.54L95.8659 107.987Z" fill="#E2FFE9" fill-opacity="0.67"/>
</g>
<g clip-path="url(#clip23)">
<path d="M45.4845 207.572L31.5955 212.019C31.0693 212.187 30.6315 212.558 30.3786 213.049C30.1256 213.54 30.0781 214.112 30.2466 214.638L30.8818 216.622C31.0503 217.148 31.4209 217.586 31.9121 217.839C32.4033 218.092 32.9749 218.139 33.5012 217.971L36.9948 228.884C37.2475 229.673 37.8034 230.33 38.5403 230.709C39.2771 231.089 40.1345 231.16 40.9238 230.907L48.8604 228.366C49.6497 228.114 50.3063 227.558 50.6858 226.821C51.0652 226.084 51.1364 225.227 50.8837 224.437L47.3901 213.525C47.9163 213.356 48.3541 212.985 48.607 212.494C48.86 212.003 48.9075 211.431 48.739 210.905L48.1038 208.921C47.9353 208.395 47.5647 207.957 47.0735 207.704C46.5823 207.451 46.0107 207.404 45.4845 207.572ZM47.9468 222.096L41.9944 224.002L40.724 220.034L46.6764 218.128L47.9468 222.096ZM46.0412 216.144L39.0967 218.367C38.8336 218.451 38.6147 218.637 38.4882 218.882C38.3617 219.128 38.338 219.414 38.4222 219.677L40.3279 225.629C40.4121 225.892 40.5974 226.111 40.843 226.238C41.0886 226.364 41.3744 226.388 41.6375 226.304L48.582 224.08L48.8996 225.072C48.9838 225.336 48.9601 225.621 48.8336 225.867C48.7071 226.113 48.4883 226.298 48.2251 226.382L40.2886 228.923C40.0255 229.007 39.7397 228.983 39.4941 228.857C39.2485 228.731 39.0632 228.512 38.9789 228.249L35.4853 217.336L45.406 214.16L46.0412 216.144ZM32.8659 215.987L32.2307 214.003L46.1197 209.556L46.7549 211.54L32.8659 215.987Z" fill="#E2FFE9" fill-opacity="0.67"/>
</g>
<g clip-path="url(#clip24)">
<path d="M60.097 75.3737L46.3704 70.449C45.8503 70.2624 45.2774 70.2901 44.7777 70.5259C44.278 70.7617 43.8925 71.1864 43.7059 71.7064L43.0024 73.6674C42.8158 74.1875 42.8434 74.7604 43.0793 75.26C43.3151 75.7597 43.7397 76.1453 44.2598 76.3319L40.3904 87.1171C40.1105 87.8972 40.152 88.7566 40.5058 89.5061C40.8595 90.2556 41.4965 90.8339 42.2766 91.1138L50.1204 93.9279C50.9005 94.2078 51.7598 94.1663 52.5094 93.8126C53.2589 93.4589 53.8372 92.8219 54.1171 92.0418L57.9865 81.2565C58.5065 81.4431 59.0794 81.4155 59.5791 81.1796C60.0788 80.9438 60.4644 80.5192 60.6509 79.9991L61.3545 78.0381C61.5411 77.5181 61.5134 76.9452 61.2776 76.4455C61.0418 75.9458 60.6171 75.5603 60.097 75.3737ZM53.2114 88.3968L47.3286 86.2862L48.7356 82.3643L54.6185 84.4749L53.2114 88.3968ZM55.322 82.514L48.4587 80.0516C48.1986 79.9583 47.9122 79.9722 47.6623 80.0901C47.4125 80.208 47.2197 80.4203 47.1264 80.6803L45.0159 86.5632C44.9226 86.8232 44.9364 87.1097 45.0543 87.3595C45.1722 87.6094 45.3845 87.8021 45.6446 87.8954L52.5079 90.3578L52.1561 91.3382C52.0628 91.5983 51.8701 91.8106 51.6202 91.9285C51.3704 92.0464 51.0839 92.0602 50.8239 91.967L42.9801 89.1529C42.7201 89.0596 42.5077 88.8668 42.3898 88.617C42.2719 88.3671 42.2581 88.0807 42.3514 87.8206L46.2208 77.0354L56.0255 80.553L55.322 82.514ZM44.9633 74.3709L45.6669 72.41L59.3935 77.3346L58.69 79.2956L44.9633 74.3709Z" fill="#E2FFE9" fill-opacity="0.67"/>
</g>
<g clip-path="url(#clip25)">
<path d="M165.368 96.6444L151.641 91.7198C151.121 91.5332 150.548 91.5608 150.048 91.7966C149.549 92.0325 149.163 92.4571 148.977 92.9772L148.273 94.9381C148.087 95.4582 148.114 96.0311 148.35 96.5308C148.586 97.0305 149.01 97.416 149.531 97.6026L145.661 108.388C145.381 109.168 145.423 110.027 145.777 110.777C146.13 111.526 146.767 112.105 147.547 112.385L155.391 115.199C156.171 115.479 157.031 115.437 157.78 115.083C158.53 114.73 159.108 114.093 159.388 113.313L163.257 102.527C163.777 102.714 164.35 102.686 164.85 102.45C165.35 102.215 165.735 101.79 165.922 101.27L166.625 99.3089C166.812 98.7888 166.784 98.2159 166.548 97.7162C166.313 97.2166 165.888 96.831 165.368 96.6444ZM158.482 109.668L152.599 107.557L154.006 103.635L159.889 105.746L158.482 109.668ZM160.593 103.785L153.729 101.322C153.469 101.229 153.183 101.243 152.933 101.361C152.683 101.479 152.49 101.691 152.397 101.951L150.287 107.834C150.193 108.094 150.207 108.38 150.325 108.63C150.443 108.88 150.655 109.073 150.915 109.166L157.779 111.629L157.427 112.609C157.334 112.869 157.141 113.081 156.891 113.199C156.641 113.317 156.355 113.331 156.095 113.238L148.251 110.424C147.991 110.33 147.778 110.138 147.661 109.888C147.543 109.638 147.529 109.351 147.622 109.091L151.492 98.3061L161.296 101.824L160.593 103.785ZM150.234 95.6417L150.938 93.6807L164.664 98.6054L163.961 100.566L150.234 95.6417Z" fill="#E2FFE9" fill-opacity="0.67"/>
</g>
<g clip-path="url(#clip26)">
<path d="M83.097 186.374L69.3704 181.449C68.8503 181.262 68.2774 181.29 67.7777 181.526C67.278 181.762 66.8925 182.186 66.7059 182.706L66.0024 184.667C65.8158 185.187 65.8434 185.76 66.0793 186.26C66.3151 186.76 66.7397 187.145 67.2598 187.332L63.3904 198.117C63.1105 198.897 63.152 199.757 63.5058 200.506C63.8595 201.256 64.4965 201.834 65.2766 202.114L73.1204 204.928C73.9005 205.208 74.7598 205.166 75.5094 204.813C76.2589 204.459 76.8372 203.822 77.1171 203.042L80.9865 192.257C81.5065 192.443 82.0794 192.415 82.5791 192.18C83.0788 191.944 83.4644 191.519 83.6509 190.999L84.3545 189.038C84.5411 188.518 84.5134 187.945 84.2776 187.445C84.0418 186.946 83.6171 186.56 83.097 186.374ZM76.2114 199.397L70.3286 197.286L71.7356 193.364L77.6185 195.475L76.2114 199.397ZM78.322 193.514L71.4587 191.052C71.1986 190.958 70.9122 190.972 70.6623 191.09C70.4125 191.208 70.2197 191.42 70.1264 191.68L68.0159 197.563C67.9226 197.823 67.9364 198.11 68.0543 198.36C68.1722 198.609 68.3845 198.802 68.6446 198.895L75.5079 201.358L75.1561 202.338C75.0628 202.598 74.8701 202.811 74.6202 202.929C74.3704 203.046 74.0839 203.06 73.8239 202.967L65.9801 200.153C65.7201 200.06 65.5077 199.867 65.3898 199.617C65.2719 199.367 65.2581 199.081 65.3514 198.821L69.2208 188.035L79.0255 191.553L78.322 193.514ZM67.9633 185.371L68.6669 183.41L82.3935 188.335L81.69 190.296L67.9633 185.371Z" fill="#E2FFE9" fill-opacity="0.67"/>
</g>
<g clip-path="url(#clip27)">
<path d="M218.484 144.572L204.596 149.019C204.069 149.187 203.632 149.558 203.379 150.049C203.126 150.54 203.078 151.112 203.247 151.638L203.882 153.622C204.05 154.148 204.421 154.586 204.912 154.839C205.403 155.092 205.975 155.14 206.501 154.971L209.995 165.884C210.248 166.673 210.803 167.33 211.54 167.709C212.277 168.089 213.135 168.16 213.924 167.907L221.86 165.366C222.65 165.114 223.306 164.558 223.686 163.821C224.065 163.084 224.136 162.227 223.884 161.437L220.39 150.525C220.916 150.356 221.354 149.986 221.607 149.494C221.86 149.003 221.908 148.431 221.739 147.905L221.104 145.921C220.935 145.395 220.565 144.957 220.074 144.704C219.582 144.451 219.011 144.404 218.484 144.572ZM220.947 159.096L214.994 161.002L213.724 157.034L219.676 155.128L220.947 159.096ZM219.041 153.144L212.097 155.367C211.834 155.451 211.615 155.637 211.488 155.882C211.362 156.128 211.338 156.414 211.422 156.677L213.328 162.629C213.412 162.892 213.597 163.111 213.843 163.238C214.089 163.364 214.374 163.388 214.638 163.304L221.582 161.08L221.9 162.073C221.984 162.336 221.96 162.621 221.834 162.867C221.707 163.113 221.488 163.298 221.225 163.382L213.289 165.923C213.026 166.007 212.74 165.984 212.494 165.857C212.249 165.731 212.063 165.512 211.979 165.249L208.485 154.336L218.406 151.16L219.041 153.144ZM205.866 152.987L205.231 151.003L219.12 146.556L219.755 148.54L205.866 152.987Z" fill="#E2FFE9" fill-opacity="0.67"/>
</g>
<g clip-path="url(#clip28)">
<path d="M212.368 191.644L198.641 186.72C198.121 186.533 197.548 186.561 197.048 186.797C196.549 187.032 196.163 187.457 195.977 187.977L195.273 189.938C195.087 190.458 195.114 191.031 195.35 191.531C195.586 192.03 196.01 192.416 196.531 192.603L192.661 203.388C192.381 204.168 192.423 205.027 192.777 205.777C193.13 206.526 193.767 207.105 194.547 207.385L202.391 210.199C203.171 210.479 204.031 210.437 204.78 210.083C205.53 209.73 206.108 209.093 206.388 208.313L210.257 197.527C210.777 197.714 211.35 197.686 211.85 197.45C212.35 197.215 212.735 196.79 212.922 196.27L213.625 194.309C213.812 193.789 213.784 193.216 213.548 192.716C213.313 192.217 212.888 191.831 212.368 191.644ZM205.482 204.668L199.599 202.557L201.006 198.635L206.889 200.746L205.482 204.668ZM207.593 198.785L200.729 196.322C200.469 196.229 200.183 196.243 199.933 196.361C199.683 196.479 199.49 196.691 199.397 196.951L197.287 202.834C197.193 203.094 197.207 203.38 197.325 203.63C197.443 203.88 197.655 204.073 197.915 204.166L204.779 206.629L204.427 207.609C204.334 207.869 204.141 208.081 203.891 208.199C203.641 208.317 203.355 208.331 203.095 208.238L195.251 205.424C194.991 205.33 194.778 205.138 194.661 204.888C194.543 204.638 194.529 204.351 194.622 204.091L198.492 193.306L208.296 196.824L207.593 198.785ZM197.234 190.642L197.938 188.681L211.664 193.605L210.961 195.566L197.234 190.642Z" fill="#E2FFE9" fill-opacity="0.67"/>
</g>
<g clip-path="url(#clip29)">
<path d="M163.704 208.736L149.254 206.767C148.706 206.693 148.152 206.839 147.712 207.173C147.272 207.507 146.983 208.003 146.908 208.55L146.627 210.615C146.553 211.162 146.699 211.717 147.033 212.157C147.367 212.597 147.863 212.886 148.41 212.96L146.864 224.314C146.752 225.135 146.971 225.967 147.472 226.627C147.974 227.286 148.717 227.72 149.538 227.832L157.795 228.957C158.617 229.068 159.449 228.849 160.108 228.348C160.768 227.846 161.202 227.103 161.314 226.282L162.86 214.928C163.408 215.003 163.962 214.857 164.402 214.523C164.842 214.188 165.131 213.693 165.206 213.145L165.487 211.081C165.561 210.534 165.415 209.979 165.081 209.539C164.747 209.099 164.251 208.81 163.704 208.736ZM159.671 222.904L153.478 222.061L154.041 217.932L160.233 218.776L159.671 222.904ZM160.515 216.712L153.29 215.727C153.016 215.69 152.739 215.763 152.519 215.93C152.299 216.097 152.154 216.345 152.117 216.619L151.273 222.812C151.236 223.085 151.309 223.363 151.476 223.583C151.643 223.803 151.891 223.947 152.165 223.984L159.39 224.969L159.249 226.001C159.212 226.275 159.067 226.522 158.848 226.689C158.628 226.857 158.35 226.93 158.077 226.892L149.819 225.768C149.546 225.73 149.298 225.586 149.131 225.366C148.964 225.146 148.891 224.869 148.928 224.595L150.475 213.241L160.796 214.647L160.515 216.712ZM148.691 210.896L148.973 208.832L163.423 210.8L163.141 212.864L148.691 210.896Z" fill="#E2FFE9" fill-opacity="0.67"/>
</g>
<g clip-path="url(#clip30)">
<path d="M349.484 209.572L335.596 214.019C335.069 214.187 334.632 214.558 334.379 215.049C334.126 215.54 334.078 216.112 334.247 216.638L334.882 218.622C335.05 219.148 335.421 219.586 335.912 219.839C336.403 220.092 336.975 220.139 337.501 219.971L340.995 230.884C341.248 231.673 341.803 232.33 342.54 232.709C343.277 233.089 344.135 233.16 344.924 232.907L352.86 230.366C353.65 230.114 354.306 229.558 354.686 228.821C355.065 228.084 355.136 227.227 354.884 226.437L351.39 215.525C351.916 215.356 352.354 214.985 352.607 214.494C352.86 214.003 352.908 213.431 352.739 212.905L352.104 210.921C351.935 210.395 351.565 209.957 351.074 209.704C350.582 209.451 350.011 209.404 349.484 209.572ZM351.947 224.096L345.994 226.002L344.724 222.034L350.676 220.128L351.947 224.096ZM350.041 218.144L343.097 220.367C342.834 220.451 342.615 220.637 342.488 220.882C342.362 221.128 342.338 221.414 342.422 221.677L344.328 227.629C344.412 227.892 344.597 228.111 344.843 228.238C345.089 228.364 345.374 228.388 345.638 228.304L352.582 226.08L352.9 227.072C352.984 227.336 352.96 227.621 352.834 227.867C352.707 228.113 352.488 228.298 352.225 228.382L344.289 230.923C344.026 231.007 343.74 230.983 343.494 230.857C343.249 230.731 343.063 230.512 342.979 230.249L339.485 219.336L349.406 216.16L350.041 218.144ZM336.866 217.987L336.231 216.003L350.12 211.556L350.755 213.54L336.866 217.987Z" fill="#E2FFE9" fill-opacity="0.67"/>
</g>
<g clip-path="url(#clip31)">
<path d="M314.803 22.6752L301.896 15.8864C301.407 15.6292 300.835 15.5768 300.308 15.7407C299.78 15.9046 299.339 16.2714 299.082 16.7605L298.112 18.6043C297.855 19.0933 297.803 19.6645 297.966 20.1921C298.13 20.7198 298.497 21.1607 298.986 21.418L293.652 31.5591C293.266 32.2926 293.188 33.1493 293.434 33.9408C293.679 34.7323 294.23 35.3937 294.963 35.7795L302.339 39.6588C303.072 40.0446 303.929 40.1232 304.72 39.8774C305.512 39.6315 306.173 39.0813 306.559 38.3478L311.893 28.2067C312.382 28.4639 312.953 28.5163 313.481 28.3524C314.009 28.1885 314.449 27.8217 314.707 27.3327L315.677 25.4888C315.934 24.9998 315.986 24.4286 315.822 23.901C315.658 23.3733 315.292 22.9324 314.803 22.6752ZM306.17 34.6122L300.638 31.7027L302.578 28.0151L308.11 30.9245L306.17 34.6122ZM309.079 29.0807L302.626 25.6863C302.381 25.5577 302.096 25.5315 301.832 25.6135C301.568 25.6954 301.348 25.8788 301.219 26.1233L298.31 31.6549C298.181 31.8994 298.155 32.1849 298.237 32.4488C298.319 32.7126 298.502 32.9331 298.747 33.0617L305.2 36.456L304.715 37.378C304.587 37.6225 304.366 37.8059 304.102 37.8878C303.838 37.9698 303.553 37.9436 303.308 37.815L295.933 33.9357C295.689 33.8071 295.505 33.5866 295.423 33.3228C295.341 33.059 295.367 32.7734 295.496 32.5289L300.83 22.3878L310.049 27.2369L309.079 29.0807ZM299.956 19.5741L300.926 17.7303L313.833 24.519L312.863 26.3628L299.956 19.5741Z" fill="#E2FFE9" fill-opacity="0.67"/>
</g>
<path d="M264.409 -4.36605L249.829 -4.69805C249.277 -4.71063 248.742 -4.50326 248.343 -4.12156C247.943 -3.73985 247.712 -3.21508 247.699 -2.66269L247.652 -0.579896C247.639 -0.0275051 247.846 0.507258 248.228 0.906753C248.61 1.30625 249.135 1.53775 249.687 1.55033L249.426 13.0057C249.407 13.8343 249.718 14.6364 250.291 15.2357C250.863 15.8349 251.651 16.1822 252.479 16.201L260.81 16.3907C261.639 16.4096 262.441 16.0986 263.04 15.526C263.64 14.9534 263.987 14.1663 264.006 13.3377L264.267 1.88233C264.819 1.89491 265.354 1.68754 265.753 1.30584C266.153 0.92413 266.384 0.399361 266.397 -0.153031L266.444 -2.23582C266.457 -2.78822 266.249 -3.32298 265.868 -3.72247C265.486 -4.12197 264.961 -4.35347 264.409 -4.36605ZM261.994 10.1661L255.746 10.0238L255.841 5.8582L262.089 6.00049L261.994 10.1661ZM262.136 3.9177L254.847 3.75169C254.57 3.7454 254.303 3.84909 254.103 4.03994C253.903 4.2308 253.788 4.49318 253.781 4.76938L253.639 11.0178C253.633 11.294 253.737 11.5613 253.927 11.7611C254.118 11.9608 254.381 12.0766 254.657 12.0829L261.947 12.2489L261.923 13.2903C261.917 13.5665 261.801 13.8288 261.601 14.0197C261.401 14.2106 261.134 14.3142 260.858 14.308L252.527 14.1182C252.25 14.1119 251.988 13.9962 251.797 13.7964C251.606 13.5967 251.503 13.3293 251.509 13.0531L251.77 1.59776L262.184 1.8349L262.136 3.9177ZM249.734 -0.532467L249.782 -2.61526L264.361 -2.28325L264.314 -0.20046L249.734 -0.532467Z" fill="#E2FFE9" fill-opacity="0.67"/>
<g clip-path="url(#clip32)">
<path d="M238.184 -8.94287L225.278 -15.7316C224.789 -15.9888 224.217 -16.0412 223.69 -15.8773C223.162 -15.7134 222.721 -15.3466 222.464 -14.8576L221.494 -13.0137C221.237 -12.5247 221.184 -11.9536 221.348 -11.4259C221.512 -10.8982 221.879 -10.4573 222.368 -10.2001L217.034 -0.0589915C216.648 0.674533 216.57 1.53128 216.816 2.32277C217.061 3.11427 217.612 3.77567 218.345 4.16149L225.721 8.04076C226.454 8.42658 227.311 8.5052 228.102 8.25934C228.894 8.01347 229.555 7.46326 229.941 6.72973L235.275 -3.41137C235.764 -3.15415 236.335 -3.10174 236.863 -3.26565C237.39 -3.42956 237.831 -3.79637 238.089 -4.28538L239.058 -6.12922C239.316 -6.61824 239.368 -7.1894 239.204 -7.71706C239.04 -8.24473 238.673 -8.68566 238.184 -8.94287ZM229.552 2.99416L224.02 0.0847073L225.96 -3.60296L231.492 -0.693511L229.552 2.99416ZM232.461 -2.53735L226.008 -5.93171C225.763 -6.06032 225.478 -6.08652 225.214 -6.00457C224.95 -5.92261 224.73 -5.73921 224.601 -5.4947L221.692 0.0368081C221.563 0.281316 221.537 0.566899 221.619 0.830731C221.701 1.09456 221.884 1.31503 222.129 1.44364L228.582 4.838L228.097 5.75991C227.969 6.00442 227.748 6.18783 227.484 6.26978C227.22 6.35174 226.935 6.32553 226.69 6.19692L219.315 2.31765C219.07 2.18905 218.887 1.96858 218.805 1.70475C218.723 1.44092 218.749 1.15533 218.878 0.910826L224.212 -9.23027L233.431 -4.38118L232.461 -2.53735ZM223.338 -12.0439L224.308 -13.8878L237.215 -7.09904L236.245 -5.2552L223.338 -12.0439Z" fill="#E2FFE9" fill-opacity="0.67"/>
</g>
<g clip-path="url(#clip33)">
<path d="M337.803 133.675L324.896 126.886C324.407 126.629 323.835 126.577 323.308 126.741C322.78 126.905 322.339 127.271 322.082 127.76L321.112 129.604C320.855 130.093 320.803 130.664 320.966 131.192C321.13 131.72 321.497 132.161 321.986 132.418L316.652 142.559C316.266 143.293 316.188 144.149 316.434 144.941C316.679 145.732 317.23 146.394 317.963 146.78L325.339 150.659C326.072 151.045 326.929 151.123 327.72 150.877C328.512 150.632 329.173 150.081 329.559 149.348L334.893 139.207C335.382 139.464 335.953 139.516 336.481 139.352C337.009 139.188 337.449 138.822 337.707 138.333L338.677 136.489C338.934 136 338.986 135.429 338.822 134.901C338.658 134.373 338.292 133.932 337.803 133.675ZM329.17 145.612L323.638 142.703L325.578 139.015L331.11 141.925L329.17 145.612ZM332.079 140.081L325.626 136.686C325.381 136.558 325.096 136.532 324.832 136.613C324.568 136.695 324.348 136.879 324.219 137.123L321.31 142.655C321.181 142.899 321.155 143.185 321.237 143.449C321.319 143.713 321.502 143.933 321.747 144.062L328.2 147.456L327.715 148.378C327.587 148.622 327.366 148.806 327.102 148.888C326.838 148.97 326.553 148.944 326.308 148.815L318.933 144.936C318.689 144.807 318.505 144.587 318.423 144.323C318.341 144.059 318.367 143.773 318.496 143.529L323.83 133.388L333.049 138.237L332.079 140.081ZM322.956 130.574L323.926 128.73L336.833 135.519L335.863 137.363L322.956 130.574Z" fill="#E2FFE9" fill-opacity="0.67"/>
</g>
<g clip-path="url(#clip34)">
<path d="M264.184 136.057L251.278 129.268C250.789 129.011 250.217 128.959 249.69 129.123C249.162 129.287 248.721 129.653 248.464 130.142L247.494 131.986C247.237 132.475 247.184 133.046 247.348 133.574C247.512 134.102 247.879 134.543 248.368 134.8L243.034 144.941C242.648 145.675 242.57 146.531 242.816 147.323C243.061 148.114 243.612 148.776 244.345 149.161L251.721 153.041C252.454 153.427 253.311 153.505 254.102 153.259C254.894 153.013 255.555 152.463 255.941 151.73L261.275 141.589C261.764 141.846 262.335 141.898 262.863 141.734C263.39 141.57 263.831 141.204 264.089 140.715L265.058 138.871C265.316 138.382 265.368 137.811 265.204 137.283C265.04 136.755 264.673 136.314 264.184 136.057ZM255.552 147.994L250.02 145.085L251.96 141.397L257.492 144.306L255.552 147.994ZM258.461 142.463L252.008 139.068C251.763 138.94 251.478 138.913 251.214 138.995C250.95 139.077 250.73 139.261 250.601 139.505L247.692 145.037C247.563 145.281 247.537 145.567 247.619 145.831C247.701 146.095 247.884 146.315 248.129 146.444L254.582 149.838L254.097 150.76C253.969 151.004 253.748 151.188 253.484 151.27C253.22 151.352 252.935 151.326 252.69 151.197L245.315 147.318C245.07 147.189 244.887 146.969 244.805 146.705C244.723 146.441 244.749 146.155 244.878 145.911L250.212 135.77L259.431 140.619L258.461 142.463ZM249.338 132.956L250.308 131.112L263.215 137.901L262.245 139.745L249.338 132.956Z" fill="#E2FFE9" fill-opacity="0.67"/>
</g>
<g clip-path="url(#clip35)">
<path d="M355.268 17.3561L341.379 21.8026C340.853 21.9711 340.416 22.3417 340.163 22.8329C339.91 23.3241 339.862 23.8957 340.031 24.4219L340.666 26.4061C340.834 26.9323 341.205 27.37 341.696 27.623C342.187 27.876 342.759 27.9235 343.285 27.755L346.779 38.6677C347.031 39.4571 347.587 40.1137 348.324 40.4932C349.061 40.8726 349.918 40.9438 350.708 40.6911L358.644 38.1503C359.434 37.8976 360.09 37.3417 360.47 36.6048C360.849 35.868 360.92 35.0106 360.668 34.2213L357.174 23.3085C357.7 23.1401 358.138 22.7695 358.391 22.2782C358.644 21.787 358.691 21.2154 358.523 20.6892L357.888 18.7051C357.719 18.1788 357.349 17.7411 356.857 17.4881C356.366 17.2351 355.795 17.1877 355.268 17.3561ZM357.731 31.8803L351.778 33.7859L350.508 29.8176L356.46 27.912L357.731 31.8803ZM355.825 25.9279L348.881 28.1511C348.618 28.2353 348.399 28.4206 348.272 28.6663C348.146 28.9119 348.122 29.1977 348.206 29.4608L350.112 35.4132C350.196 35.6763 350.381 35.8952 350.627 36.0217C350.873 36.1481 351.158 36.1719 351.422 36.0876L358.366 33.8644L358.684 34.8565C358.768 35.1196 358.744 35.4054 358.618 35.651C358.491 35.8966 358.272 36.0819 358.009 36.1661L350.073 38.707C349.809 38.7912 349.524 38.7675 349.278 38.641C349.032 38.5145 348.847 38.2956 348.763 38.0325L345.269 27.1198L355.19 23.9437L355.825 25.9279ZM342.65 25.7709L342.015 23.7867L355.904 19.3403L356.539 21.3244L342.65 25.7709Z" fill="#E2FFE9" fill-opacity="0.67"/>
</g>
<g clip-path="url(#clip36)">
<path d="M378.268 128.356L364.379 132.803C363.853 132.971 363.416 133.342 363.163 133.833C362.91 134.324 362.862 134.896 363.031 135.422L363.666 137.406C363.834 137.932 364.205 138.37 364.696 138.623C365.187 138.876 365.759 138.923 366.285 138.755L369.779 149.668C370.031 150.457 370.587 151.114 371.324 151.493C372.061 151.873 372.918 151.944 373.708 151.691L381.644 149.15C382.434 148.898 383.09 148.342 383.47 147.605C383.849 146.868 383.92 146.011 383.668 145.221L380.174 134.309C380.7 134.14 381.138 133.769 381.391 133.278C381.644 132.787 381.691 132.215 381.523 131.689L380.888 129.705C380.719 129.179 380.349 128.741 379.857 128.488C379.366 128.235 378.795 128.188 378.268 128.356ZM380.731 142.88L374.778 144.786L373.508 140.818L379.46 138.912L380.731 142.88ZM378.825 136.928L371.881 139.151C371.618 139.235 371.399 139.421 371.272 139.666C371.146 139.912 371.122 140.198 371.206 140.461L373.112 146.413C373.196 146.676 373.381 146.895 373.627 147.022C373.873 147.148 374.158 147.172 374.422 147.088L381.366 144.864L381.684 145.856C381.768 146.12 381.744 146.405 381.618 146.651C381.491 146.897 381.272 147.082 381.009 147.166L373.073 149.707C372.809 149.791 372.524 149.767 372.278 149.641C372.032 149.515 371.847 149.296 371.763 149.033L368.269 138.12L378.19 134.944L378.825 136.928ZM365.65 136.771L365.015 134.787L378.904 130.34L379.539 132.324L365.65 136.771Z" fill="#E2FFE9" fill-opacity="0.67"/>
</g>
<g clip-path="url(#clip37)">
<path d="M336.484 58.5722L322.596 63.0187C322.069 63.1871 321.632 63.5577 321.379 64.049C321.126 64.5402 321.078 65.1118 321.247 65.638L321.882 67.6221C322.05 68.1484 322.421 68.5861 322.912 68.8391C323.403 69.0921 323.975 69.1395 324.501 68.9711L327.995 79.8838C328.248 80.6731 328.803 81.3298 329.54 81.7092C330.277 82.0887 331.135 82.1599 331.924 81.9072L339.86 79.3663C340.65 79.1136 341.306 78.5577 341.686 77.8209C342.065 77.0841 342.136 76.2267 341.884 75.4373L338.39 64.5246C338.916 64.3561 339.354 63.9855 339.607 63.4943C339.86 63.0031 339.908 62.4315 339.739 61.9053L339.104 59.9211C338.935 59.3949 338.565 58.9571 338.074 58.7042C337.582 58.4512 337.011 58.4037 336.484 58.5722ZM338.947 73.0963L332.994 75.002L331.724 71.0337L337.676 69.1281L338.947 73.0963ZM337.041 67.1439L330.097 69.3672C329.834 69.4514 329.615 69.6367 329.488 69.8823C329.362 70.1279 329.338 70.4137 329.422 70.6768L331.328 76.6292C331.412 76.8924 331.597 77.1112 331.843 77.2377C332.089 77.3642 332.374 77.3879 332.638 77.3037L339.582 75.0805L339.9 76.0725C339.984 76.3357 339.96 76.6215 339.834 76.8671C339.707 77.1127 339.488 77.298 339.225 77.3822L331.289 79.9231C331.026 80.0073 330.74 79.9835 330.494 79.8571C330.249 79.7306 330.063 79.5117 329.979 79.2486L326.485 68.3359L336.406 65.1598L337.041 67.1439ZM323.866 66.9869L323.231 65.0028L337.12 60.5563L337.755 62.5405L323.866 66.9869Z" fill="#E2FFE9" fill-opacity="0.67"/>
</g>
<g clip-path="url(#clip38)">
<path d="M359.484 169.572L345.596 174.019C345.069 174.187 344.632 174.558 344.379 175.049C344.126 175.54 344.078 176.112 344.247 176.638L344.882 178.622C345.05 179.148 345.421 179.586 345.912 179.839C346.403 180.092 346.975 180.14 347.501 179.971L350.995 190.884C351.248 191.673 351.803 192.33 352.54 192.709C353.277 193.089 354.135 193.16 354.924 192.907L362.86 190.366C363.65 190.114 364.306 189.558 364.686 188.821C365.065 188.084 365.136 187.227 364.884 186.437L361.39 175.525C361.916 175.356 362.354 174.986 362.607 174.494C362.86 174.003 362.908 173.431 362.739 172.905L362.104 170.921C361.935 170.395 361.565 169.957 361.074 169.704C360.582 169.451 360.011 169.404 359.484 169.572ZM361.947 184.096L355.994 186.002L354.724 182.034L360.676 180.128L361.947 184.096ZM360.041 178.144L353.097 180.367C352.834 180.451 352.615 180.637 352.488 180.882C352.362 181.128 352.338 181.414 352.422 181.677L354.328 187.629C354.412 187.892 354.597 188.111 354.843 188.238C355.089 188.364 355.374 188.388 355.638 188.304L362.582 186.08L362.9 187.073C362.984 187.336 362.96 187.621 362.834 187.867C362.707 188.113 362.488 188.298 362.225 188.382L354.289 190.923C354.026 191.007 353.74 190.984 353.494 190.857C353.249 190.731 353.063 190.512 352.979 190.249L349.485 179.336L359.406 176.16L360.041 178.144ZM346.866 177.987L346.231 176.003L360.12 171.556L360.755 173.54L346.866 177.987Z" fill="#E2FFE9" fill-opacity="0.67"/>
</g>
<g clip-path="url(#clip39)">
<path d="M256.484 180.572L242.596 185.019C242.069 185.187 241.632 185.558 241.379 186.049C241.126 186.54 241.078 187.112 241.247 187.638L241.882 189.622C242.05 190.148 242.421 190.586 242.912 190.839C243.403 191.092 243.975 191.139 244.501 190.971L247.995 201.884C248.248 202.673 248.803 203.33 249.54 203.709C250.277 204.089 251.135 204.16 251.924 203.907L259.86 201.366C260.65 201.114 261.306 200.558 261.686 199.821C262.065 199.084 262.136 198.227 261.884 197.437L258.39 186.525C258.916 186.356 259.354 185.985 259.607 185.494C259.86 185.003 259.908 184.431 259.739 183.905L259.104 181.921C258.935 181.395 258.565 180.957 258.074 180.704C257.582 180.451 257.011 180.404 256.484 180.572ZM258.947 195.096L252.994 197.002L251.724 193.034L257.676 191.128L258.947 195.096ZM257.041 189.144L250.097 191.367C249.834 191.451 249.615 191.637 249.488 191.882C249.362 192.128 249.338 192.414 249.422 192.677L251.328 198.629C251.412 198.892 251.597 199.111 251.843 199.238C252.089 199.364 252.374 199.388 252.638 199.304L259.582 197.08L259.9 198.072C259.984 198.336 259.96 198.621 259.834 198.867C259.707 199.113 259.488 199.298 259.225 199.382L251.289 201.923C251.026 202.007 250.74 201.983 250.494 201.857C250.249 201.731 250.063 201.512 249.979 201.249L246.485 190.336L256.406 187.16L257.041 189.144ZM243.866 188.987L243.231 187.003L257.12 182.556L257.755 184.54L243.866 188.987Z" fill="#E2FFE9" fill-opacity="0.67"/>
</g>
<g clip-path="url(#clip40)">
<path d="M270.484 38.5721L256.596 43.0186C256.069 43.1871 255.632 43.5577 255.379 44.0489C255.126 44.5401 255.078 45.1117 255.247 45.6379L255.882 47.6221C256.05 48.1483 256.421 48.586 256.912 48.839C257.403 49.092 257.975 49.1395 258.501 48.971L261.995 59.8837C262.248 60.6731 262.803 61.3297 263.54 61.7092C264.277 62.0886 265.135 62.1598 265.924 61.9071L273.86 59.3663C274.65 59.1136 275.306 58.5577 275.686 57.8208C276.065 57.084 276.136 56.2266 275.884 55.4373L272.39 44.5245C272.916 44.3561 273.354 43.9855 273.607 43.4942C273.86 43.003 273.908 42.4314 273.739 41.9052L273.104 39.9211C272.935 39.3948 272.565 38.9571 272.074 38.7041C271.582 38.4511 271.011 38.4037 270.484 38.5721ZM272.947 53.0963L266.994 55.0019L265.724 51.0336L271.676 49.128L272.947 53.0963ZM271.041 47.1439L264.097 49.3671C263.834 49.4513 263.615 49.6366 263.488 49.8823C263.362 50.1279 263.338 50.4137 263.422 50.6768L265.328 56.6292C265.412 56.8923 265.597 57.1112 265.843 57.2377C266.089 57.3641 266.374 57.3879 266.638 57.3036L273.582 55.0804L273.9 56.0725C273.984 56.3356 273.96 56.6214 273.834 56.867C273.707 57.1126 273.488 57.2979 273.225 57.3822L265.289 59.923C265.026 60.0072 264.74 59.9835 264.494 59.857C264.249 59.7305 264.063 59.5116 263.979 59.2485L260.485 48.3358L270.406 45.1597L271.041 47.1439ZM257.866 46.9869L257.231 45.0027L271.12 40.5563L271.755 42.5404L257.866 46.9869Z" fill="#E2FFE9" fill-opacity="0.67"/>
</g>
<g clip-path="url(#clip41)">
<path d="M293.484 104.572L279.596 109.019C279.069 109.187 278.632 109.558 278.379 110.049C278.126 110.54 278.078 111.112 278.247 111.638L278.882 113.622C279.05 114.148 279.421 114.586 279.912 114.839C280.403 115.092 280.975 115.14 281.501 114.971L284.995 125.884C285.248 126.673 285.803 127.33 286.54 127.709C287.277 128.089 288.135 128.16 288.924 127.907L296.86 125.366C297.65 125.114 298.306 124.558 298.686 123.821C299.065 123.084 299.136 122.227 298.884 121.437L295.39 110.525C295.916 110.356 296.354 109.986 296.607 109.494C296.86 109.003 296.908 108.431 296.739 107.905L296.104 105.921C295.935 105.395 295.565 104.957 295.074 104.704C294.582 104.451 294.011 104.404 293.484 104.572ZM295.947 119.096L289.994 121.002L288.724 117.034L294.676 115.128L295.947 119.096ZM294.041 113.144L287.097 115.367C286.834 115.451 286.615 115.637 286.488 115.882C286.362 116.128 286.338 116.414 286.422 116.677L288.328 122.629C288.412 122.892 288.597 123.111 288.843 123.238C289.089 123.364 289.374 123.388 289.638 123.304L296.582 121.08L296.9 122.073C296.984 122.336 296.96 122.621 296.834 122.867C296.707 123.113 296.488 123.298 296.225 123.382L288.289 125.923C288.026 126.007 287.74 125.984 287.494 125.857C287.249 125.731 287.063 125.512 286.979 125.249L283.485 114.336L293.406 111.16L294.041 113.144ZM280.866 112.987L280.231 111.003L294.12 106.556L294.755 108.54L280.866 112.987Z" fill="#E2FFE9" fill-opacity="0.67"/>
</g>
<g clip-path="url(#clip42)">
<path d="M381.484 53.5721L367.596 58.0186C367.069 58.1871 366.632 58.5577 366.379 59.0489C366.126 59.5401 366.078 60.1117 366.247 60.6379L366.882 62.6221C367.05 63.1483 367.421 63.586 367.912 63.839C368.403 64.092 368.975 64.1395 369.501 63.971L372.995 74.8837C373.248 75.6731 373.803 76.3297 374.54 76.7092C375.277 77.0886 376.135 77.1598 376.924 76.9071L384.86 74.3663C385.65 74.1136 386.306 73.5577 386.686 72.8208C387.065 72.084 387.136 71.2266 386.884 70.4373L383.39 59.5245C383.916 59.3561 384.354 58.9855 384.607 58.4942C384.86 58.003 384.908 57.4314 384.739 56.9052L384.104 54.9211C383.935 54.3948 383.565 53.9571 383.074 53.7041C382.582 53.4511 382.011 53.4037 381.484 53.5721ZM383.947 68.0963L377.994 70.0019L376.724 66.0336L382.676 64.128L383.947 68.0963ZM382.041 62.1439L375.097 64.3671C374.834 64.4513 374.615 64.6366 374.488 64.8823C374.362 65.1279 374.338 65.4137 374.422 65.6768L376.328 71.6292C376.412 71.8923 376.597 72.1112 376.843 72.2377C377.089 72.3641 377.374 72.3879 377.638 72.3036L384.582 70.0804L384.9 71.0725C384.984 71.3356 384.96 71.6214 384.834 71.867C384.707 72.1126 384.488 72.2979 384.225 72.3822L376.289 74.923C376.026 75.0072 375.74 74.9835 375.494 74.857C375.249 74.7305 375.063 74.5116 374.979 74.2485L371.485 63.3358L381.406 60.1597L382.041 62.1439ZM368.866 61.9869L368.231 60.0027L382.12 55.5563L382.755 57.5404L368.866 61.9869Z" fill="#E2FFE9" fill-opacity="0.67"/>
</g>
<g clip-path="url(#clip43)">
<path d="M293.484 149.572L279.596 154.019C279.069 154.187 278.632 154.558 278.379 155.049C278.126 155.54 278.078 156.112 278.247 156.638L278.882 158.622C279.05 159.148 279.421 159.586 279.912 159.839C280.403 160.092 280.975 160.139 281.501 159.971L284.995 170.884C285.248 171.673 285.803 172.33 286.54 172.709C287.277 173.089 288.135 173.16 288.924 172.907L296.86 170.366C297.65 170.114 298.306 169.558 298.686 168.821C299.065 168.084 299.136 167.227 298.884 166.437L295.39 155.525C295.916 155.356 296.354 154.985 296.607 154.494C296.86 154.003 296.908 153.431 296.739 152.905L296.104 150.921C295.935 150.395 295.565 149.957 295.074 149.704C294.582 149.451 294.011 149.404 293.484 149.572ZM295.947 164.096L289.994 166.002L288.724 162.034L294.676 160.128L295.947 164.096ZM294.041 158.144L287.097 160.367C286.834 160.451 286.615 160.637 286.488 160.882C286.362 161.128 286.338 161.414 286.422 161.677L288.328 167.629C288.412 167.892 288.597 168.111 288.843 168.238C289.089 168.364 289.374 168.388 289.638 168.304L296.582 166.08L296.9 167.072C296.984 167.336 296.96 167.621 296.834 167.867C296.707 168.113 296.488 168.298 296.225 168.382L288.289 170.923C288.026 171.007 287.74 170.983 287.494 170.857C287.249 170.731 287.063 170.512 286.979 170.249L283.485 159.336L293.406 156.16L294.041 158.144ZM280.866 157.987L280.231 156.003L294.12 151.556L294.755 153.54L280.866 157.987Z" fill="#E2FFE9" fill-opacity="0.67"/>
</g>
<g clip-path="url(#clip44)">
<path d="M330.484 -15.4278L316.596 -10.9813C316.069 -10.8129 315.632 -10.4423 315.379 -9.95104C315.126 -9.45982 315.078 -8.88822 315.247 -8.362L315.882 -6.37786C316.05 -5.85164 316.421 -5.41389 316.912 -5.16092C317.403 -4.90794 317.975 -4.86047 318.501 -5.02894L321.995 5.8838C322.248 6.67314 322.803 7.32976 323.54 7.70922C324.277 8.08868 325.135 8.15989 325.924 7.90719L333.86 5.36635C334.65 5.11364 335.306 4.55773 335.686 3.82089C336.065 3.08406 336.136 2.22667 335.884 1.43733L332.39 -9.47541C332.916 -9.64387 333.354 -10.0145 333.607 -10.5057C333.86 -10.9969 333.908 -11.5685 333.739 -12.0947L333.104 -14.0789C332.935 -14.6051 332.565 -15.0429 332.074 -15.2958C331.582 -15.5488 331.011 -15.5963 330.484 -15.4278ZM332.947 -0.903661L326.994 1.00197L325.724 -2.9663L331.676 -4.87193L332.947 -0.903661ZM331.041 -6.85606L324.097 -4.63283C323.834 -4.54859 323.615 -4.36329 323.488 -4.11768C323.362 -3.87207 323.338 -3.58627 323.422 -3.32316L325.328 2.62924C325.412 2.89236 325.597 3.11123 325.843 3.23772C326.089 3.36421 326.374 3.38794 326.638 3.30371L333.582 1.08047L333.9 2.07254C333.984 2.33565 333.96 2.62145 333.834 2.86706C333.707 3.11267 333.488 3.29798 333.225 3.38221L325.289 5.92305C325.026 6.00728 324.74 5.98355 324.494 5.85706C324.249 5.73058 324.063 5.5117 323.979 5.24859L320.485 -5.66415L330.406 -8.8402L331.041 -6.85606ZM317.866 -7.01307L317.231 -8.99721L331.12 -13.4437L331.755 -11.4595L317.866 -7.01307Z" fill="#E2FFE9" fill-opacity="0.67"/>
</g>
<g clip-path="url(#clip45)">
<path d="M353.484 95.5722L339.596 100.019C339.069 100.187 338.632 100.558 338.379 101.049C338.126 101.54 338.078 102.112 338.247 102.638L338.882 104.622C339.05 105.148 339.421 105.586 339.912 105.839C340.403 106.092 340.975 106.14 341.501 105.971L344.995 116.884C345.248 117.673 345.803 118.33 346.54 118.709C347.277 119.089 348.135 119.16 348.924 118.907L356.86 116.366C357.65 116.114 358.306 115.558 358.686 114.821C359.065 114.084 359.136 113.227 358.884 112.437L355.39 101.525C355.916 101.356 356.354 100.986 356.607 100.494C356.86 100.003 356.908 99.4315 356.739 98.9053L356.104 96.9211C355.935 96.3949 355.565 95.9571 355.074 95.7042C354.582 95.4512 354.011 95.4037 353.484 95.5722ZM355.947 110.096L349.994 112.002L348.724 108.034L354.676 106.128L355.947 110.096ZM354.041 104.144L347.097 106.367C346.834 106.451 346.615 106.637 346.488 106.882C346.362 107.128 346.338 107.414 346.422 107.677L348.328 113.629C348.412 113.892 348.597 114.111 348.843 114.238C349.089 114.364 349.374 114.388 349.638 114.304L356.582 112.08L356.9 113.073C356.984 113.336 356.96 113.621 356.834 113.867C356.707 114.113 356.488 114.298 356.225 114.382L348.289 116.923C348.026 117.007 347.74 116.984 347.494 116.857C347.249 116.731 347.063 116.512 346.979 116.249L343.485 105.336L353.406 102.16L354.041 104.144ZM340.866 103.987L340.231 102.003L354.12 97.5563L354.755 99.5405L340.866 103.987Z" fill="#E2FFE9" fill-opacity="0.67"/>
</g>
<g clip-path="url(#clip46)">
<path d="M290.484 203.572L276.596 208.019C276.069 208.187 275.632 208.558 275.379 209.049C275.126 209.54 275.078 210.112 275.247 210.638L275.882 212.622C276.05 213.148 276.421 213.586 276.912 213.839C277.403 214.092 277.975 214.139 278.501 213.971L281.995 224.884C282.248 225.673 282.803 226.33 283.54 226.709C284.277 227.089 285.135 227.16 285.924 226.907L293.86 224.366C294.65 224.114 295.306 223.558 295.686 222.821C296.065 222.084 296.136 221.227 295.884 220.437L292.39 209.525C292.916 209.356 293.354 208.985 293.607 208.494C293.86 208.003 293.908 207.431 293.739 206.905L293.104 204.921C292.935 204.395 292.565 203.957 292.074 203.704C291.582 203.451 291.011 203.404 290.484 203.572ZM292.947 218.096L286.994 220.002L285.724 216.034L291.676 214.128L292.947 218.096ZM291.041 212.144L284.097 214.367C283.834 214.451 283.615 214.637 283.488 214.882C283.362 215.128 283.338 215.414 283.422 215.677L285.328 221.629C285.412 221.892 285.597 222.111 285.843 222.238C286.089 222.364 286.374 222.388 286.638 222.304L293.582 220.08L293.9 221.072C293.984 221.336 293.96 221.621 293.834 221.867C293.707 222.113 293.488 222.298 293.225 222.382L285.289 224.923C285.026 225.007 284.74 224.983 284.494 224.857C284.249 224.731 284.063 224.512 283.979 224.249L280.485 213.336L290.406 210.16L291.041 212.144ZM277.866 211.987L277.231 210.003L291.12 205.556L291.755 207.54L277.866 211.987Z" fill="#E2FFE9" fill-opacity="0.67"/>
</g>
<g clip-path="url(#clip47)">
<path d="M305.097 71.3737L291.37 66.449C290.85 66.2624 290.277 66.2901 289.778 66.5259C289.278 66.7617 288.892 67.1864 288.706 67.7064L288.002 69.6674C287.816 70.1875 287.843 70.7604 288.079 71.26C288.315 71.7597 288.74 72.1453 289.26 72.3319L285.39 83.1171C285.111 83.8972 285.152 84.7566 285.506 85.5061C285.859 86.2556 286.496 86.8339 287.277 87.1138L295.12 89.9279C295.9 90.2078 296.76 90.1663 297.509 89.8126C298.259 89.4589 298.837 88.8219 299.117 88.0418L302.986 77.2565C303.507 77.4431 304.079 77.4155 304.579 77.1796C305.079 76.9438 305.464 76.5192 305.651 75.9991L306.354 74.0381C306.541 73.5181 306.513 72.9452 306.278 72.4455C306.042 71.9458 305.617 71.5603 305.097 71.3737ZM298.211 84.3968L292.329 82.2862L293.736 78.3643L299.618 80.4749L298.211 84.3968ZM300.322 78.514L293.459 76.0516C293.199 75.9583 292.912 75.9722 292.662 76.0901C292.412 76.208 292.22 76.4203 292.126 76.6803L290.016 82.5632C289.923 82.8232 289.936 83.1097 290.054 83.3595C290.172 83.6094 290.384 83.8021 290.645 83.8954L297.508 86.3578L297.156 87.3382C297.063 87.5983 296.87 87.8106 296.62 87.9285C296.37 88.0464 296.084 88.0602 295.824 87.967L287.98 85.1529C287.72 85.0596 287.508 84.8668 287.39 84.617C287.272 84.3671 287.258 84.0807 287.351 83.8206L291.221 73.0354L301.025 76.553L300.322 78.514ZM289.963 70.3709L290.667 68.41L304.393 73.3346L303.69 75.2956L289.963 70.3709Z" fill="#E2FFE9" fill-opacity="0.67"/>
</g>
<g clip-path="url(#clip48)">
<path d="M328.097 182.374L314.37 177.449C313.85 177.262 313.277 177.29 312.778 177.526C312.278 177.762 311.892 178.186 311.706 178.706L311.002 180.667C310.816 181.187 310.843 181.76 311.079 182.26C311.315 182.76 311.74 183.145 312.26 183.332L308.39 194.117C308.111 194.897 308.152 195.757 308.506 196.506C308.859 197.256 309.496 197.834 310.277 198.114L318.12 200.928C318.9 201.208 319.76 201.166 320.509 200.813C321.259 200.459 321.837 199.822 322.117 199.042L325.986 188.257C326.507 188.443 327.079 188.415 327.579 188.18C328.079 187.944 328.464 187.519 328.651 186.999L329.354 185.038C329.541 184.518 329.513 183.945 329.278 183.445C329.042 182.946 328.617 182.56 328.097 182.374ZM321.211 195.397L315.329 193.286L316.736 189.364L322.618 191.475L321.211 195.397ZM323.322 189.514L316.459 187.052C316.199 186.958 315.912 186.972 315.662 187.09C315.412 187.208 315.22 187.42 315.126 187.68L313.016 193.563C312.923 193.823 312.936 194.11 313.054 194.36C313.172 194.609 313.384 194.802 313.645 194.895L320.508 197.358L320.156 198.338C320.063 198.598 319.87 198.811 319.62 198.929C319.37 199.046 319.084 199.06 318.824 198.967L310.98 196.153C310.72 196.06 310.508 195.867 310.39 195.617C310.272 195.367 310.258 195.081 310.351 194.821L314.221 184.035L324.025 187.553L323.322 189.514ZM312.963 181.371L313.667 179.41L327.393 184.335L326.69 186.296L312.963 181.371Z" fill="#E2FFE9" fill-opacity="0.67"/>
</g>
<g clip-path="url(#clip49)">
<path d="M8.48446 81.5721L-5.40448 86.0186C-5.9307 86.1871 -6.36845 86.5577 -6.62142 87.0489C-6.8744 87.5401 -6.92187 88.1117 -6.7534 88.6379L-6.11819 90.6221C-5.94972 91.1483 -5.57911 91.586 -5.08789 91.839C-4.59667 92.092 -4.02507 92.1395 -3.49885 91.971L-0.00519528 102.884C0.247507 103.673 0.803423 104.33 1.54026 104.709C2.27709 105.089 3.13448 105.16 3.92382 104.907L11.8604 102.366C12.6497 102.114 13.3063 101.558 13.6858 100.821C14.0652 100.084 14.1364 99.2266 13.8837 98.4373L10.3901 87.5245C10.9163 87.3561 11.3541 86.9855 11.607 86.4942C11.86 86.003 11.9075 85.4314 11.739 84.9052L11.1038 82.9211C10.9353 82.3948 10.5647 81.9571 10.0735 81.7041C9.58228 81.4511 9.01068 81.4037 8.48446 81.5721ZM10.9468 96.0963L4.99439 98.0019L3.72397 94.0336L9.67637 92.128L10.9468 96.0963ZM9.04116 90.1439L2.0967 92.3671C1.83358 92.4513 1.61471 92.6366 1.48822 92.8823C1.36174 93.1279 1.338 93.4137 1.42223 93.6768L3.32786 99.6292C3.4121 99.8923 3.5974 100.111 3.84301 100.238C4.08862 100.364 4.37442 100.388 4.63753 100.304L11.582 98.0804L11.8996 99.0725C11.9838 99.3356 11.9601 99.6214 11.8336 99.867C11.7071 100.113 11.4883 100.298 11.2251 100.382L3.28861 102.923C3.0255 103.007 2.7397 102.983 2.49409 102.857C2.24848 102.731 2.06317 102.512 1.97894 102.249L-1.51471 91.3358L8.40595 88.1597L9.04116 90.1439ZM-4.13406 89.9869L-4.76927 88.0027L9.11967 83.5563L9.75488 85.5404L-4.13406 89.9869Z" fill="#E2FFE9" fill-opacity="0.67"/>
</g>
<g clip-path="url(#clip50)">
<path d="M258.595 84.6145L244.203 82.258C243.658 82.1687 243.1 82.2997 242.651 82.6221C242.202 82.9445 241.9 83.432 241.811 83.9773L241.474 86.0332C241.385 86.5785 241.516 87.1369 241.838 87.5856C242.161 88.0343 242.648 88.3366 243.194 88.4258L241.342 99.7336C241.208 100.551 241.404 101.389 241.888 102.062C242.372 102.735 243.103 103.189 243.921 103.322L252.145 104.669C252.963 104.803 253.8 104.607 254.473 104.123C255.146 103.639 255.6 102.908 255.734 102.09L257.585 90.7824C258.13 90.8717 258.689 90.7407 259.138 90.4183C259.586 90.0958 259.889 89.6084 259.978 89.0631L260.314 87.0071C260.404 86.4619 260.273 85.9034 259.95 85.4547C259.628 85.006 259.14 84.7038 258.595 84.6145ZM254.183 98.6696L248.015 97.6596L248.688 93.5477L254.856 94.5576L254.183 98.6696ZM255.193 92.5017L247.997 91.3234C247.724 91.2788 247.445 91.3443 247.221 91.5055C246.996 91.6667 246.845 91.9104 246.8 92.1831L245.791 98.3509C245.746 98.6236 245.811 98.9028 245.973 99.1271C246.134 99.3515 246.378 99.5026 246.65 99.5472L253.846 100.726L253.678 101.753C253.633 102.026 253.482 102.27 253.258 102.431C253.033 102.592 252.754 102.658 252.481 102.613L244.258 101.267C243.985 101.222 243.741 101.071 243.58 100.846C243.419 100.622 243.353 100.343 243.398 100.07L245.249 88.7625L255.529 90.4457L255.193 92.5017ZM243.53 86.3699L243.867 84.3139L258.258 86.6705L257.922 88.7264L243.53 86.3699Z" fill="#E2FFE9" fill-opacity="0.67"/>
</g>
<defs>
<clipPath id="clip0">
<rect width="25" height="25" fill="white" transform="translate(215 215.623) rotate(-17.7522)"/>
</clipPath>
<clipPath id="clip1">
<rect width="25" height="25" fill="white" transform="translate(85 217.622) rotate(-17.7522)"/>
</clipPath>
<clipPath id="clip2">
<rect width="25" height="25" fill="white" transform="translate(53.2559 15.618) rotate(27.7434)"/>
</clipPath>
<clipPath id="clip3">
<rect width="25" height="25" fill="white" transform="translate(164.256 30.618) rotate(27.7434)"/>
</clipPath>
<clipPath id="clip4">
<rect width="25" height="25" fill="white" transform="translate(76.2559 126.618) rotate(27.7434)"/>
</clipPath>
<clipPath id="clip5">
<rect width="25" height="25" fill="white" transform="translate(2.63782 129) rotate(27.7434)"/>
</clipPath>
<clipPath id="clip6">
<rect width="25" height="25" fill="white" transform="translate(90.7839 25.4065) rotate(-17.7522)"/>
</clipPath>
<clipPath id="clip7">
<rect width="25" height="25" fill="white" transform="translate(201.784 40.4065) rotate(-17.7522)"/>
</clipPath>
<clipPath id="clip8">
<rect width="25" height="25" fill="white" transform="translate(113.784 136.406) rotate(-17.7522)"/>
</clipPath>
<clipPath id="clip9">
<rect width="25" height="25" fill="white" transform="translate(167.271 122.255) rotate(23.6176)"/>
</clipPath>
<clipPath id="clip10">
<rect width="25" height="25" fill="white" transform="translate(72 66.6226) rotate(-17.7522)"/>
</clipPath>
<clipPath id="clip11">
<rect width="25" height="25" fill="white" transform="translate(95 177.623) rotate(-17.7522)"/>
</clipPath>
<clipPath id="clip12">
<rect width="25" height="25" fill="white" transform="translate(-8 188.622) rotate(-17.7522)"/>
</clipPath>
<clipPath id="clip13">
<rect width="25" height="25" fill="white" transform="translate(6 46.6225) rotate(-17.7522)"/>
</clipPath>
<clipPath id="clip14">
<rect width="25" height="25" fill="white" transform="translate(29 112.623) rotate(-17.7522)"/>
</clipPath>
<clipPath id="clip15">
<rect width="25" height="25" fill="white" transform="translate(122.228 55.4858) rotate(8.60837)"/>
</clipPath>
<clipPath id="clip16">
<rect width="25" height="25" fill="white" transform="translate(29 157.622) rotate(-17.7522)"/>
</clipPath>
<clipPath id="clip17">
<rect width="25" height="25" fill="white" transform="translate(66 -7.37744) rotate(-17.7522)"/>
</clipPath>
<clipPath id="clip18">
<rect width="25" height="25" fill="white" transform="translate(177 7.62256) rotate(-17.7522)"/>
</clipPath>
<clipPath id="clip19">
<rect width="25" height="25" fill="white" transform="translate(140.168 -4.0683) rotate(26.7077)"/>
</clipPath>
<clipPath id="clip20">
<rect width="25" height="25" fill="white" transform="translate(210.374 106) rotate(7.75722)"/>
</clipPath>
<clipPath id="clip21">
<rect width="25" height="25" fill="white" transform="translate(147.374 167) rotate(7.75722)"/>
</clipPath>
<clipPath id="clip22">
<rect width="25" height="25" fill="white" transform="translate(89 103.623) rotate(-17.7522)"/>
</clipPath>
<clipPath id="clip23">
<rect width="25" height="25" fill="white" transform="translate(26 211.622) rotate(-17.7522)"/>
</clipPath>
<clipPath id="clip24">
<rect width="25" height="25" fill="white" transform="translate(42.1715 66.7292) rotate(19.7363)"/>
</clipPath>
<clipPath id="clip25">
<rect width="25" height="25" fill="white" transform="translate(147.442 88) rotate(19.7363)"/>
</clipPath>
<clipPath id="clip26">
<rect width="25" height="25" fill="white" transform="translate(65.1715 177.729) rotate(19.7363)"/>
</clipPath>
<clipPath id="clip27">
<rect width="25" height="25" fill="white" transform="translate(199 148.623) rotate(-17.7522)"/>
</clipPath>
<clipPath id="clip28">
<rect width="25" height="25" fill="white" transform="translate(194.442 183) rotate(19.7363)"/>
</clipPath>
<clipPath id="clip29">
<rect width="25" height="25" fill="white" transform="translate(144.374 204) rotate(7.75722)"/>
</clipPath>
<clipPath id="clip30">
<rect width="25" height="25" fill="white" transform="translate(330 213.622) rotate(-17.7522)"/>
</clipPath>
<clipPath id="clip31">
<rect width="25" height="25" fill="white" transform="translate(298.256 11.618) rotate(27.7434)"/>
</clipPath>
<clipPath id="clip32">
<rect width="25" height="25" fill="white" transform="translate(221.638 -20) rotate(27.7434)"/>
</clipPath>
<clipPath id="clip33">
<rect width="25" height="25" fill="white" transform="translate(321.256 122.618) rotate(27.7434)"/>
</clipPath>
<clipPath id="clip34">
<rect width="25" height="25" fill="white" transform="translate(247.638 125) rotate(27.7434)"/>
</clipPath>
<clipPath id="clip35">
<rect width="25" height="25" fill="white" transform="translate(335.784 21.4065) rotate(-17.7522)"/>
</clipPath>
<clipPath id="clip36">
<rect width="25" height="25" fill="white" transform="translate(358.784 132.406) rotate(-17.7522)"/>
</clipPath>
<clipPath id="clip37">
<rect width="25" height="25" fill="white" transform="translate(317 62.6226) rotate(-17.7522)"/>
</clipPath>
<clipPath id="clip38">
<rect width="25" height="25" fill="white" transform="translate(340 173.623) rotate(-17.7522)"/>
</clipPath>
<clipPath id="clip39">
<rect width="25" height="25" fill="white" transform="translate(237 184.622) rotate(-17.7522)"/>
</clipPath>
<clipPath id="clip40">
<rect width="25" height="25" fill="white" transform="translate(251 42.6225) rotate(-17.7522)"/>
</clipPath>
<clipPath id="clip41">
<rect width="25" height="25" fill="white" transform="translate(274 108.623) rotate(-17.7522)"/>
</clipPath>
<clipPath id="clip42">
<rect width="25" height="25" fill="white" transform="translate(362 57.6225) rotate(-17.7522)"/>
</clipPath>
<clipPath id="clip43">
<rect width="25" height="25" fill="white" transform="translate(274 153.622) rotate(-17.7522)"/>
</clipPath>
<clipPath id="clip44">
<rect width="25" height="25" fill="white" transform="translate(311 -11.3774) rotate(-17.7522)"/>
</clipPath>
<clipPath id="clip45">
<rect width="25" height="25" fill="white" transform="translate(334 99.6226) rotate(-17.7522)"/>
</clipPath>
<clipPath id="clip46">
<rect width="25" height="25" fill="white" transform="translate(271 207.622) rotate(-17.7522)"/>
</clipPath>
<clipPath id="clip47">
<rect width="25" height="25" fill="white" transform="translate(287.171 62.7292) rotate(19.7363)"/>
</clipPath>
<clipPath id="clip48">
<rect width="25" height="25" fill="white" transform="translate(310.171 173.729) rotate(19.7363)"/>
</clipPath>
<clipPath id="clip49">
<rect width="25" height="25" fill="white" transform="translate(-11 85.6225) rotate(-17.7522)"/>
</clipPath>
<clipPath id="clip50">
<rect width="25" height="25" fill="white" transform="translate(239.4 79.3604) rotate(9.29932)"/>
</clipPath>
</defs>
</svg>
