<svg width="30" height="30" viewBox="0 0 30 30" fill="none" xmlns="http://www.w3.org/2000/svg">
<path fill-rule="evenodd" clip-rule="evenodd" d="M16.7168 18.2911C17.9208 18.2911 18.9008 19.2641 18.9008 20.4601V23.5361C18.9008 23.7931 19.1068 23.9991 19.3708 24.0051H21.2768C22.7788 24.0051 23.9998 22.7991 23.9998 21.3171V12.5931C23.9928 12.0831 23.7498 11.6031 23.3328 11.2841L16.7398 6.02613C15.8548 5.32513 14.6168 5.32513 13.7288 6.02813L7.18076 11.2821C6.74776 11.6111 6.50476 12.0911 6.49976 12.6101V21.3171C6.49976 22.7991 7.72076 24.0051 9.22276 24.0051H11.1468C11.4178 24.0051 11.6378 23.7901 11.6378 23.5261C11.6378 23.4681 11.6448 23.4101 11.6568 23.3551V20.4601C11.6568 19.2711 12.6308 18.2991 13.8258 18.2911H16.7168ZM21.2768 25.5051H19.3528C18.2508 25.4791 17.4008 24.6141 17.4008 23.5361V20.4601C17.4008 20.0911 17.0938 19.7911 16.7168 19.7911H13.8308C13.4618 19.7931 13.1568 20.0941 13.1568 20.4601V23.5261C13.1568 23.6011 13.1468 23.6731 13.1258 23.7411C13.0178 24.7311 12.1718 25.5051 11.1468 25.5051H9.22276C6.89376 25.5051 4.99976 23.6261 4.99976 21.3171V12.6031C5.00976 11.6091 5.46776 10.6991 6.25876 10.1001L12.7938 4.85513C14.2328 3.71513 16.2378 3.71513 17.6738 4.85313L24.2558 10.1031C25.0288 10.6921 25.4868 11.6001 25.4998 12.5821V21.3171C25.4998 23.6261 23.6058 25.5051 21.2768 25.5051Z" fill="black"/>
</svg>
