<svg width="30" height="30" viewBox="0 0 30 30" fill="none" xmlns="http://www.w3.org/2000/svg">
<path fill-rule="evenodd" clip-rule="evenodd" d="M9.71547 11.0401C9.27447 11.0401 7.80047 11.2181 7.37747 13.5021L6.60547 19.5021C6.35447 21.1851 6.54847 22.4031 7.18347 23.1401C7.81047 23.8681 8.93247 24.2221 10.6125 24.2221H18.9605C20.0085 24.2221 21.4395 24.0131 22.3035 23.0151C22.9895 22.2241 23.2255 21.0461 23.0055 19.5131L22.2265 13.4611C21.8945 11.9701 21.0185 11.0401 19.8945 11.0401H9.71547ZM18.9605 25.7221H10.6125C8.46947 25.7221 6.97647 25.1971 6.04747 24.1181C5.11447 23.0361 4.80247 21.4131 5.12047 19.2951L5.89647 13.2691C6.40647 10.5061 8.27147 9.5401 9.71547 9.5401H19.8945C21.3445 9.5401 23.1075 10.5031 23.7025 13.2041L24.4915 19.3111C24.7745 21.2821 24.4205 22.8631 23.4375 23.9971C22.4595 25.1251 20.9115 25.7221 18.9605 25.7221Z" fill="black"/>
<path fill-rule="evenodd" clip-rule="evenodd" d="M19.0978 10.8203C18.6838 10.8203 18.3478 10.4843 18.3478 10.0703C18.3478 8.10131 16.7458 6.50031 14.7778 6.50031H14.7628C13.8218 6.50031 12.9048 6.87931 12.2398 7.54031C11.5718 8.20531 11.1888 9.12831 11.1888 10.0703C11.1888 10.4843 10.8528 10.8203 10.4388 10.8203C10.0248 10.8203 9.6888 10.4843 9.6888 10.0703C9.6888 8.73131 10.2328 7.42231 11.1808 6.47731C12.1258 5.53831 13.4288 5.00031 14.7598 5.00031H14.7808C17.5738 5.00031 19.8478 7.27431 19.8478 10.0703C19.8478 10.4843 19.5118 10.8203 19.0978 10.8203Z" fill="black"/>
<path fill-rule="evenodd" clip-rule="evenodd" d="M17.7433 15.3242H17.6973C17.2833 15.3242 16.9473 14.9882 16.9473 14.5742C16.9473 14.1602 17.2833 13.8242 17.6973 13.8242C18.1113 13.8242 18.4703 14.1602 18.4703 14.5742C18.4703 14.9882 18.1573 15.3242 17.7433 15.3242Z" fill="black"/>
<path fill-rule="evenodd" clip-rule="evenodd" d="M11.9122 15.3242H11.8672C11.4532 15.3242 11.1172 14.9882 11.1172 14.5742C11.1172 14.1602 11.4532 13.8242 11.8672 13.8242C12.2812 13.8242 12.6402 14.1602 12.6402 14.5742C12.6402 14.9882 12.3262 15.3242 11.9122 15.3242Z" fill="black"/>
</svg>
