<svg width="11" height="11" viewBox="0 0 13 13" fill="none" xmlns="http://www.w3.org/2000/svg">
<path d="M5.42223 0.846159C5.73293 -0.282052 7.26707 -0.282053 7.57777 0.846157L8.25763 3.31487C8.39959 3.83032 8.86 4.17892 9.37429 4.16032L11.8374 4.07126C12.9631 4.03056 13.4371 5.55105 12.5035 6.20762L10.4606 7.6443C10.034 7.94427 9.85815 8.50831 10.034 9.01228L10.8765 11.4259C11.2615 12.529 10.0203 13.4687 9.1326 12.7463L7.19013 11.1655C6.78455 10.8354 6.21545 10.8354 5.80987 11.1655L3.8674 12.7463C2.97969 13.4687 1.73854 12.529 2.12353 11.4259L2.96595 9.01228C3.14185 8.50832 2.96599 7.94427 2.53943 7.6443L0.496498 6.20762C-0.437131 5.55105 0.0369443 4.03056 1.1626 4.07126L3.62571 4.16032C4.13999 4.17892 4.60041 3.83032 4.74236 3.31487L5.42223 0.846159Z" fill="#E7E7E7"/>
</svg>
