<svg width="30" height="30" viewBox="0 0 30 30" fill="none" xmlns="http://www.w3.org/2000/svg">
<path fill-rule="evenodd" clip-rule="evenodd" d="M21.2768 25.5051H19.3528C18.2508 25.4791 17.4008 24.6141 17.4008 23.5361V20.4601C17.4008 20.0911 17.0938 19.7911 16.7168 19.7911H13.8308C13.4618 19.7931 13.1568 20.0941 13.1568 20.4601V23.5261C13.1568 23.6011 13.1468 23.6731 13.1258 23.7411C13.0178 24.7311 12.1718 25.5051 11.1468 25.5051H9.22276C6.89376 25.5051 4.99976 23.6261 4.99976 21.3171V12.6031C5.00976 11.6091 5.46776 10.6991 6.25876 10.1001L12.7938 4.85513C14.2328 3.71513 16.2378 3.71513 17.6738 4.85313L24.2558 10.1031C25.0288 10.6921 25.4868 11.6001 25.4998 12.5821V21.3171C25.4998 23.6261 23.6058 25.5051 21.2768 25.5051Z" fill="black"/>
</svg>
