<svg width="34" height="34" viewBox="0 0 34 34" fill="none" xmlns="http://www.w3.org/2000/svg">
<path d="M23.5056 9.50565L9.50565 23.5056M4.24086 7.48804L1.45672 14.2095C0.84776 15.6797 0.847759 17.3316 1.45672 18.8017L4.24086 25.5233C4.84983 26.9934 6.01787 28.1615 7.48804 28.7704L14.2095 31.5546C15.6797 32.1635 17.3316 32.1635 18.8017 31.5546L25.5233 28.7704C26.9934 28.1615 28.1615 26.9934 28.7704 25.5233L31.5546 18.8017C32.1635 17.3316 32.1635 15.6797 31.5546 14.2095L28.7704 7.48804C28.1615 6.01787 26.9934 4.84983 25.5233 4.24086L18.8017 1.45672C17.3316 0.84776 15.6797 0.847759 14.2095 1.45672L7.48804 4.24086C6.01787 4.84983 4.84983 6.01787 4.24086 7.48804ZM24.5056 22.0056C24.5056 23.3864 23.3864 24.5056 22.0056 24.5056C20.6249 24.5056 19.5056 23.3864 19.5056 22.0056C19.5056 20.6249 20.6249 19.5056 22.0056 19.5056C23.3864 19.5056 24.5056 20.6249 24.5056 22.0056ZM13.5056 11.0056C13.5056 12.3864 12.3864 13.5056 11.0056 13.5056C9.62494 13.5056 8.50565 12.3864 8.50565 11.0056C8.50565 9.62494 9.62494 8.50565 11.0056 8.50565C12.3864 8.50565 13.5056 9.62494 13.5056 11.0056Z" stroke="#1440FF" stroke-width="2" stroke-linecap="round" stroke-linejoin="round"/>
</svg>
