<svg width="30" height="30" viewBox="0 0 30 30" fill="none" xmlns="http://www.w3.org/2000/svg">
<path fill-rule="evenodd" clip-rule="evenodd" d="M14.9209 18.9961C10.6599 18.9961 8.49988 19.7281 8.49988 21.1731C8.49988 22.6311 10.6599 23.3701 14.9209 23.3701C19.1809 23.3701 21.3399 22.6381 21.3399 21.1931C21.3399 19.7351 19.1809 18.9961 14.9209 18.9961ZM14.9209 24.8701C12.9619 24.8701 6.99988 24.8701 6.99988 21.1731C6.99988 17.8771 11.5209 17.4961 14.9209 17.4961C16.8799 17.4961 22.8399 17.4961 22.8399 21.1931C22.8399 24.4891 18.3199 24.8701 14.9209 24.8701Z" fill="black"/>
<path fill-rule="evenodd" clip-rule="evenodd" d="M14.8889 15.6187H14.9209C17.8489 15.6187 20.2299 13.2377 20.2299 10.3097C20.2299 7.38169 17.8489 4.99969 14.9209 4.99969C11.9919 4.99969 9.60989 7.3817 9.60989 10.3067C9.59989 13.2267 11.9669 15.6097 14.8889 15.6187ZM14.9209 6.42767C12.7799 6.42767 11.0379 8.16867 11.0379 10.3097C11.0309 12.4437 12.7889 14.1837 14.9209 14.1917C17.0609 14.1917 18.8019 12.4497 18.8019 10.3097C18.8019 8.16867 17.0609 6.42767 14.9209 6.42767Z" fill="black"/>
</svg>
