<svg width="24" height="24" viewBox="0 0 24 24" fill="none" xmlns="http://www.w3.org/2000/svg">
<path d="M20.16 4.99998C19.1 3.93719 17.6948 3.28852 16.1984 3.17115C14.7019 3.05378 13.2128 3.47545 12 4.35998C10.7277 3.41362 9.14402 2.98449 7.56795 3.15902C5.99188 3.33355 4.54047 4.09876 3.506 5.30057C2.47154 6.50237 1.93085 8.0515 1.99283 9.636C2.05481 11.2205 2.71485 12.7227 3.84003 13.84L10.05 20.06C10.57 20.5718 11.2704 20.8586 12 20.8586C12.7296 20.8586 13.43 20.5718 13.95 20.06L20.16 13.84C21.3276 12.6652 21.983 11.0763 21.983 9.41998C21.983 7.76371 21.3276 6.17472 20.16 4.99998V4.99998ZM18.75 12.46L12.54 18.67C12.4694 18.7413 12.3853 18.798 12.2926 18.8366C12.1999 18.8753 12.1005 18.8952 12 18.8952C11.8996 18.8952 11.8002 18.8753 11.7075 18.8366C11.6148 18.798 11.5307 18.7413 11.46 18.67L5.25003 12.43C4.46579 11.6283 4.02664 10.5514 4.02664 9.42998C4.02664 8.30852 4.46579 7.23164 5.25003 6.42998C6.04919 5.64097 7.127 5.19855 8.25003 5.19855C9.37306 5.19855 10.4509 5.64097 11.25 6.42998C11.343 6.52371 11.4536 6.59811 11.5755 6.64887C11.6973 6.69964 11.828 6.72578 11.96 6.72578C12.092 6.72578 12.2227 6.69964 12.3446 6.64887C12.4665 6.59811 12.5771 6.52371 12.67 6.42998C13.4692 5.64097 14.547 5.19855 15.67 5.19855C16.7931 5.19855 17.8709 5.64097 18.67 6.42998C19.4651 7.22113 19.9186 8.29217 19.9336 9.41367C19.9485 10.5352 19.5237 11.6179 18.75 12.43V12.46Z" fill="black"/>
</svg>
