<svg width="30" height="30" viewBox="0 0 30 30" fill="none" xmlns="http://www.w3.org/2000/svg">
<path fill-rule="evenodd" clip-rule="evenodd" d="M22.6983 12.453C22.929 12.4506 23.1802 12.4479 23.4084 12.4479C23.6537 12.4479 23.85 12.6316 23.85 12.8612V20.2459C23.85 22.5238 21.8775 24.37 19.4437 24.37H11.632C9.08049 24.37 7 22.432 7 20.0439V10.1424C7 7.86456 8.98235 6 11.4259 6H16.6664C16.9216 6 17.1179 6.19289 17.1179 6.42251V9.38008C17.1179 11.0609 18.5997 12.4387 20.3956 12.4479C20.8151 12.4479 21.1849 12.4508 21.5085 12.4533C21.7603 12.4553 21.9842 12.4571 22.1817 12.4571C22.3214 12.4571 22.5025 12.4551 22.6983 12.453ZM12.3779 19.2172H17.7165C18.1188 19.2172 18.4525 18.9049 18.4525 18.5283C18.4525 18.1518 18.1188 17.8487 17.7165 17.8487H12.3779C11.9755 17.8487 11.6418 18.1518 11.6418 18.5283C11.6418 18.9049 11.9755 19.2172 12.3779 19.2172ZM15.6949 13.2562H12.3779C11.9755 13.2562 11.6418 13.5684 11.6418 13.945C11.6418 14.3216 11.9755 14.6247 12.3779 14.6247H15.6949C16.0972 14.6247 16.4309 14.3216 16.4309 13.945C16.4309 13.5684 16.0972 13.2562 15.6949 13.2562Z" fill="#130F26"/>
<path d="M22.9689 11.1124C22.1623 11.1151 21.2113 11.1124 20.5273 11.1059C19.4419 11.1059 18.5479 10.2692 18.5479 9.25333V6.83216C18.5479 6.43629 19.0611 6.23973 19.3546 6.52538C19.8857 7.04228 20.6156 7.75281 21.3422 8.46009C22.0668 9.16545 22.7881 9.86757 23.3055 10.3711C23.5921 10.6494 23.3821 11.1115 22.9689 11.1124Z" fill="#130F26"/>
</svg>
