<svg width="24" height="24" viewBox="0 0 24 24" fill="none" xmlns="http://www.w3.org/2000/svg">
<path d="M20.16 4.99998C19.1 3.93719 17.6948 3.28852 16.1984 3.17115C14.7019 3.05378 13.2128 3.47545 12 4.35998C10.7277 3.41362 9.14402 2.98449 7.56795 3.15902C5.99188 3.33355 4.54047 4.09876 3.506 5.30057C2.47154 6.50237 1.93085 8.0515 1.99283 9.636C2.05481 11.2205 2.71485 12.7227 3.84003 13.84L10.05 20.06C10.57 20.5718 11.2704 20.8586 12 20.8586C12.7296 20.8586 13.43 20.5718 13.95 20.06L20.16 13.84C21.3276 12.6652 21.983 11.0763 21.983 9.41998C21.983 7.76371 21.3276 6.17472 20.16 4.99998Z" fill="#FF1414"/>
</svg>
