<svg width="73" height="17" viewBox="0 0 73 17" fill="none" xmlns="http://www.w3.org/2000/svg">
<g clip-path="url(#clip0)">
<path d="M5.37991 8.50006C5.37991 6.74542 6.82151 5.32471 8.6005 5.32471C10.3795 5.32471 11.8211 6.74542 11.8211 8.50006C11.8211 10.2547 10.3795 11.6754 8.6005 11.6754C6.82151 11.6754 5.37991 10.2547 5.37991 8.50006Z" fill="#00AA13"/>
<path d="M8.58824 0.0375912C3.8463 0.0375912 0 3.82616 0 8.47688C0 11.9862 2.14706 14.9733 5.2695 16.309C5.48921 16.401 5.72687 16.4434 5.96521 16.4332C6.20355 16.423 6.43661 16.3604 6.64747 16.2499C6.85833 16.1395 7.04169 15.984 7.18427 15.7947C7.32685 15.6053 7.42505 15.387 7.47177 15.1554C7.54554 14.7951 7.49042 14.4206 7.31583 14.096C7.14124 13.7715 6.85805 13.5171 6.51479 13.3765V13.3759C4.58244 12.5745 3.22059 10.6923 3.22059 8.49448C3.22059 5.56805 5.62529 3.2002 8.58824 3.2002C11.5512 3.2002 13.9559 5.56805 13.9559 8.49448C13.9559 10.6923 12.594 12.5745 10.6617 13.3759V13.3771C10.3154 13.5155 10.0289 13.7692 9.85175 14.0945C9.67455 14.4198 9.6178 14.7962 9.69131 15.1585C9.76482 15.5208 9.96396 15.8463 10.2543 16.0787C10.5446 16.3111 10.9079 16.4357 11.2813 16.4311C11.4938 16.4294 11.7041 16.3876 11.9008 16.3078C15.0233 15.0024 17.1765 12.0092 17.1765 8.47566C17.1765 3.80066 13.3302 0.036377 8.58824 0.036377" fill="#00AA13"/>
<path d="M42.0823 7.58925C42.0823 6.05925 41.0149 4.91782 39.3586 4.91782C37.6962 4.91782 36.6288 6.05925 36.6288 7.58925C36.6288 9.11925 37.6962 10.2607 39.3586 10.2607C41.0211 10.2607 42.0823 9.11925 42.0823 7.58925ZM33.9848 7.58925C33.9848 4.77817 36.2423 2.6046 39.3832 2.6046C42.5424 2.6046 44.7815 4.77817 44.7815 7.58925C44.7815 10.4003 42.5424 12.5739 39.3832 12.5739C36.2423 12.5739 33.9848 10.4003 33.9848 7.58925ZM43.8613 14.6321H45.309C46.0881 14.6321 46.358 14.3467 46.358 13.6728V2.62282H49.0327V13.6728C49.0327 16.0042 48.0757 17 45.5299 17H43.8674V14.5957L43.8613 14.6321ZM29.6907 8.13567C29.6907 9.30139 28.4884 10.2303 26.967 10.2303C25.2432 10.2303 24.1697 9.22853 24.1697 7.55889C24.1697 6.01675 25.3169 4.96032 27.0774 4.96032C28.4761 4.96032 29.6969 5.92567 29.6969 7.01853V8.1296L29.6907 8.13567ZM29.7999 2.62889V3.73996H29.7631C29.0699 3.02353 27.9289 2.62889 26.5671 2.62889C23.6409 2.62889 21.4755 4.77817 21.4755 7.55889C21.4755 10.4428 23.6961 12.5617 26.6529 12.5617C27.978 12.5617 29.0883 12.1489 29.7631 11.4142H29.7999V12.3735C29.7999 13.6607 28.6712 14.6139 27.1805 14.6139C25.6776 14.6139 24.8003 14.1962 24.0458 13.4785L22.3036 15.13C23.4692 16.3503 25.2297 17.0425 27.2357 17.0425C30.2907 17.0425 32.3764 15.0207 32.3764 12.3371V2.62282H29.7938L29.7999 2.62889ZM55.8713 4.76603C57.2945 4.76603 58.2883 5.4946 58.4171 6.5996H53.2887C53.4335 5.4946 54.4297 4.76603 55.8713 4.76603ZM56.1474 10.4671C54.5463 10.4671 53.2887 9.4471 53.2519 8.45746H61.0427V7.71067C61.0427 4.88139 59.0551 2.63496 55.8407 2.63496C52.8041 2.63496 50.6387 4.73567 50.6387 7.63782C50.6387 10.631 52.9268 12.6042 56.2823 12.6042C58.3435 12.6042 59.8158 11.6328 60.5887 10.6978L58.7791 9.4471C57.9755 10.1878 57.2455 10.4671 56.1719 10.4671H56.1474ZM62.6131 0.0849609H65.1957L65.2098 6.6421H65.2448L69.5634 2.6471H73.0233L68.5451 6.82425L73.0049 12.6346H69.9192L66.8581 8.43317H66.8232L65.1975 9.95103V12.6407H62.6149L62.6131 0.0849609Z" fill="black"/>
</g>
<defs>
<clipPath id="clip0">
<rect width="73" height="17" fill="white"/>
</clipPath>
</defs>
</svg>
