<svg width="48" height="17" viewBox="0 0 48 17" fill="none" xmlns="http://www.w3.org/2000/svg">
<g clip-path="url(#clip0)">
<path d="M22.4086 10.7124C22.4086 14.3964 25.0187 17 28.5409 17C29.326 17 30.2391 16.7672 30.8112 16.3224V15.0735C30.4295 15.3911 29.4959 15.7511 28.5409 15.7511C25.6549 15.7511 23.7029 13.7189 23.7029 10.7124C23.7029 7.85461 25.7829 5.7162 28.5409 5.7162C31.2785 5.7162 33.273 7.72746 33.273 10.5429V16.64H34.5464V10.522C34.5464 7.00751 32.0636 4.42489 28.5409 4.42489C25.0822 4.42489 22.4086 7.1561 22.4086 10.7124ZM30.8112 13.2318L30.7903 13.2103C30.2601 13.6336 29.39 13.8879 28.5619 13.8879C26.8648 13.8879 25.5914 12.618 25.5914 10.7339C25.5914 8.93401 26.8433 7.55794 28.5199 7.55794C30.3235 7.55794 31.427 8.8707 31.427 10.6277V16.64H32.6788V10.5644C32.6788 8.10837 30.9602 6.30901 28.5409 6.30901C26.1431 6.30901 24.2971 8.10837 24.2971 10.7339C24.2971 13.3374 26.1222 15.2006 28.5409 15.1373C29.454 15.1159 30.3875 14.7774 30.8112 14.4807V13.2318ZM35.9042 7.19796C36.2865 6.71137 36.7108 6.18187 37.1565 5.73765V0H35.9042V7.19796ZM37.7717 0V5.27198C38.1535 4.97532 38.5783 4.61534 39.0241 4.44582V0H37.7717ZM39.0241 10.2468H38.9816L38.0051 11.5805C38.1745 13.1046 39.7242 15.1373 42.058 15.1373C44.4348 15.1373 46.1534 13.2103 46.1534 10.691C46.1534 8.1722 44.3923 6.30901 41.9736 6.30901C39.6178 6.30901 38.26 8.02361 37.305 9.29399C36.8382 9.90773 36.0321 10.9029 35.14 12.1518V14.1845C35.9676 12.9565 37.0925 11.5172 37.9201 10.522C39.3209 8.84925 40.1695 7.57939 41.9521 7.57939C43.6922 7.57939 44.8806 8.91308 44.8806 10.691C44.8806 12.5327 43.7556 13.8879 42.058 13.8879C40.2754 13.8879 39.0241 12.258 39.0241 10.4372V10.2468ZM35.14 9.31544V11.1572C35.8832 10.162 36.5199 9.29399 37.1141 8.57456C38.6203 6.7323 39.9361 5.7162 41.9736 5.7162C44.7316 5.7162 46.7476 7.7913 46.7476 10.7124C46.7476 13.5703 44.7741 15.7511 42.058 15.7511C39.8517 15.7511 37.9416 14.2479 37.4964 12.1947L36.6043 13.4013C37.305 15.412 39.3634 17 42.037 17C45.4743 17 48 14.2479 48 10.7124C48 7.13465 45.4533 4.44582 41.9736 4.44582C38.3659 4.44582 36.7108 7.13465 35.14 9.31544ZM15.5121 16.64H16.7639V10.0987C16.7639 7.51556 18.5041 5.75858 21.0293 5.75858C21.8778 5.75858 22.7479 6.03379 23.1302 6.26663C23.3631 5.99141 23.6185 5.69527 23.9578 5.42005C23.1727 4.86963 22.1117 4.55203 20.9658 4.55203C17.634 4.55203 15.5121 6.79613 15.5121 10.1196V16.64ZM17.3581 10.0987V16.64H18.6105V10.1196C18.6105 8.6588 19.565 7.62177 20.9868 7.62177C21.4116 7.62177 21.7929 7.72746 22.1967 7.89699C22.3661 7.49463 22.536 7.15611 22.7479 6.83851C22.3026 6.54184 21.6444 6.35139 21.0078 6.35139C18.8649 6.35139 17.3581 7.89699 17.3581 10.0987ZM0 9.01877C0 13.5917 3.39527 17 7.95743 17C12.1168 17 14.663 14.3964 14.663 10.1829V8.02361H8.10637V9.25161H13.4751V10.3948C13.4751 13.6974 11.4167 15.7511 7.95743 15.7511C4.15939 15.7511 1.33681 12.8503 1.33681 9.01877C1.33681 5.29291 4.30781 2.35031 8.14885 2.35031C9.9734 2.35031 11.6286 2.79505 12.8809 3.66255V2.41362C11.671 1.5456 10.0799 1.10086 8.14885 1.10086C3.54369 1.10086 0 4.59441 0 9.01877ZM1.97349 9.01877C1.97349 12.4694 4.58419 15.1159 7.95743 15.1159C11.2048 15.1159 12.8385 13.0199 12.8385 10.7124V9.8868H8.10637V11.1572H11.5441C11.5651 12.4061 10.4197 13.8669 7.95743 13.8669C5.24185 13.8669 3.35331 11.8557 3.35331 9.01877C3.35331 6.28756 5.39026 4.23444 8.19133 4.23444C10.0159 4.23444 11.4592 4.67865 12.796 5.61051L12.8809 5.54667V4.36158C11.8834 3.66255 10.1858 2.98498 8.14885 2.98498C4.69013 2.98498 1.97349 5.65289 1.97349 9.01877Z" fill="#00B14F"/>
</g>
<defs>
<clipPath id="clip0">
<rect width="48" height="17" fill="white"/>
</clipPath>
</defs>
</svg>
