<?xml version="1.0" encoding="UTF-8" standalone="no"?>
<svg width="120px" height="19.46px" viewBox="0 0 185 30" version="1.1" xmlns="http://www.w3.org/2000/svg" xmlns:xlink="http://www.w3.org/1999/xlink">
    <!-- Generator: Sketch 40.1 (33804) - http://www.bohemiancoding.com/sketch -->
    <title>logo-midtrans-color copy 2</title>
    <desc>Created with Sketch.</desc>
    <defs>
        <polygon id="path-1" points="0 0.0220220588 0 18.3520221 4.01572163 18.3520221 4.01572163 0.0220220588 2.58182627e-20 0.0220220588"></polygon>
    </defs>
    <g id="Midtrans" stroke="none" stroke-width="1" fill="none" fill-rule="evenodd">
        <g id="1-Overview-alt" transform="translate(-135.000000, -15.000000)">
            <g id="header">
                <g id="logo-midtrans-color-copy-2" transform="translate(135.000000, 15.000000)">
                    <g id="Group-3" transform="translate(0.000000, 5.763228)">
                        <mask id="mask-2" fill="black">
                            <use xlink:href="#path-1"></use>
                        </mask>
                        <g id="Clip-2"></g>
                    </g>
                    <path d="M2.00779732,24.11525 C0.899057322,24.11525 -0.000127003436,23.23025 -0.000127003436,22.139 L-0.000127003436,7.7615 C-0.000127003436,6.67025 0.899057322,5.78525 2.00779732,5.78525 C3.11653731,5.78525 4.01572163,6.67025 4.01572163,7.7615 L4.01572163,22.139 C4.01572163,23.23025 3.11653731,24.11525 2.00779732,24.11525" id="Fill-1" fill="#89C7E8"></path>
                    <path d="M26.1021271,24.11525 C24.9933871,24.11525 24.0942028,23.23025 24.0942028,22.139 L24.0942028,7.77275 C24.0942028,6.6815 24.9933871,5.7965 26.1021271,5.7965 C27.2108671,5.7965 28.1100514,6.6815 28.1100514,7.77275 L28.1100514,22.139 C28.1100514,23.23025 27.2108671,24.11525 26.1021271,24.11525" id="Fill-4" fill="#0BADDC"></path>
                    <path d="M14.0549622,29.880875 C12.9462222,29.880875 12.0470379,28.995875 12.0470379,27.904625 L12.0470379,2.007125 C12.0470379,0.915875 12.9462222,0.030875 14.0549622,0.030875 C15.1637022,0.030875 16.0628865,0.915875 16.0628865,2.007125 L16.0628865,27.904625 C16.0628865,28.995875 15.1637022,29.880875 14.0549622,29.880875" id="Fill-6" fill="#307FC2"></path>
                    <path d="M171.019905,21.84125 C170.778599,21.67125 170.537292,21.33125 170.537292,20.88875 C170.537292,20.2775 171.055466,19.7675 171.710804,19.7675 C171.952111,19.7675 172.194687,19.835 172.367412,19.9725 C174.196261,21.195 176.096233,21.84125 178.029225,21.84125 C180.170503,21.84125 181.725025,20.75375 181.725025,19.05375 L181.725025,18.98625 C181.725025,17.21875 179.619308,16.53875 177.271015,15.89375 C174.473129,15.11125 171.365355,14.16 171.365355,10.9325 L171.365355,10.86375 C171.365355,7.83875 173.920664,5.8325 177.442469,5.8325 C179.342441,5.8325 181.415137,6.41125 183.139843,7.32875 C183.486563,7.53375 183.796451,7.90625 183.796451,8.41625 C183.796451,9.02875 183.278277,9.53875 182.622939,9.53875 C182.380363,9.53875 182.173347,9.47 182.036183,9.4025 C180.515952,8.5525 178.894118,8.0425 177.373887,8.0425 C175.2669,8.0425 173.920664,9.13 173.920664,10.5925 L173.920664,10.66 C173.920664,12.325 176.130524,12.97125 178.513108,13.68375 C181.275433,14.5 184.244773,15.55375 184.244773,18.715 L184.244773,18.78125 C184.244773,22.11375 181.449428,24.05 177.892061,24.05 C175.543768,24.05 172.954168,23.2 171.019905,21.84125" id="Fill-12" fill="#000000"></path>
                    <path d="M166.703313,13.1615 C166.703313,9.20775 163.180237,5.76525 158.933242,5.76525 C154.636716,5.76525 151.153012,9.194 151.153012,13.42275 L151.153012,22.479 C151.153012,23.26025 151.766439,23.86275 152.55894,23.86275 C153.353982,23.86275 153.930577,23.26025 153.930577,22.479 L153.929307,18.4115 L153.929307,13.16025 C153.929307,10.444 156.167108,8.2415 158.926892,8.2415 C161.687947,8.2415 163.925748,10.444 163.925748,13.16025 L163.925748,18.42025 L163.925748,22.479 C163.925748,23.26025 164.537904,23.86275 165.296115,23.86275 C166.089886,23.86275 166.703313,23.26025 166.703313,22.479 C166.703313,22.479 166.728713,14.01275 166.703313,13.1615" id="Fill-14" fill="#000000"></path>
                    <path d="M137.750339,21.7345 C135.332194,21.7345 133.425872,20.7195 133.425872,18.51075 L133.425872,18.442 C133.425872,16.23325 135.290283,14.80575 138.639364,14.80575 C140.814932,14.80575 143.885875,15.492 143.887145,15.55325 L143.887145,15.557 C143.887145,18.77825 140.830173,21.7345 137.750339,21.7345 L137.750339,21.7345 Z M146.408164,12.97075 L146.403084,12.97075 C146.160507,9.1995 142.749195,5.9995 138.655874,5.9995 L137.464582,5.9995 C136.769873,5.9995 136.207248,6.55325 136.207248,7.237 C136.207248,7.92075 136.769873,8.47575 137.464582,8.47575 L138.649524,8.47575 C141.410578,8.47575 143.854125,10.67825 143.854125,13.3945 L143.854125,13.61575 C142.265312,13.1745 140.642208,12.86825 138.363766,12.86825 C133.839904,12.86825 130.73213,14.8395 130.73213,18.5445 L130.73213,18.612 C130.73213,22.21575 133.959287,24.0845 137.274077,24.0845 C140.284058,24.0845 142.659022,22.56575 143.887145,20.6095 L143.887145,22.62325 C143.887145,23.30825 144.452311,23.86325 145.14829,23.86325 C145.844268,23.86325 146.409434,23.30825 146.409434,22.62325 L146.408164,12.97075 Z" id="Fill-16" fill="#000000"></path>
                    <path d="M130.229704,7.234 C130.229704,6.55025 129.665809,5.99525 128.9711,5.99525 L128.112557,5.99525 L128.112557,5.99525 L128.111287,5.99525 C123.81476,5.99525 120.331056,9.424 120.331056,13.6515 L120.331056,22.479 C120.331056,23.26025 120.944483,23.86275 121.736984,23.86275 C122.532026,23.86275 123.108621,23.26025 123.108621,22.479 L123.107351,18.4115 L123.107351,13.39025 C123.107351,10.674 125.345152,8.4715 128.104937,8.4715 L128.112557,8.4715 L128.112557,8.47275 L128.9711,8.47275 C129.665809,8.47275 130.229704,7.91775 130.229704,7.234" id="Fill-18" fill="#000000"></path>
                    <path d="M115.917814,7.170875 L115.917814,7.170875 C115.917814,6.532125 115.39202,6.014625 114.743032,6.014625 L110.082006,6.014625 L110.082006,1.402125 C110.082006,0.677125 109.48128,0.010875 108.74593,0.005875 C107.980099,-0.000375 107.422554,0.613375 107.422554,1.330875 L107.422554,19.054625 C107.422554,22.622125 109.596853,24.015875 112.46332,24.015875 C113.499668,24.015875 114.329001,23.845875 115.088481,23.540875 C115.536804,23.370875 115.847962,22.997125 115.847962,22.520875 C115.847962,21.908375 115.329788,21.399625 114.708741,21.399625 C114.501726,21.399625 114.017842,21.637125 113.085637,21.637125 C111.289809,21.637125 110.082006,20.854625 110.082006,18.714625 L110.082006,8.327125 L114.743032,8.327125 C115.39202,8.327125 115.917814,7.809625 115.917814,7.170875" id="Fill-20" fill="#000000"></path>
                    <path d="M101.928385,22.555 C101.928385,23.3025 101.34163,23.88 100.61644,23.88 C99.8569594,23.88 99.2689334,23.3025 99.2689334,22.555 L99.2689334,20.67 C97.8185542,22.7775 95.7128372,24.08375 92.4323385,24.08375 C88.1510527,24.08375 83.9027878,20.75375 83.9027878,14.97625 L83.9027878,14.9075 C83.9027878,9.165 88.1510527,5.76625 92.4323385,5.76625 C95.7471282,5.76625 97.8884061,7.03875 99.2689334,9.01 L99.2689334,1.32625 C99.2689334,0.57875 99.8213984,0 100.582149,0 C101.34163,0 101.928385,0.57875 101.928385,1.32625 L101.928385,22.555 Z M86.6320916,14.87375 L86.6320916,14.9425 C86.6320916,19.08875 89.565871,21.74 92.9162216,21.74 C96.2310113,21.74 99.3730763,18.98625 99.3730763,14.9425 L99.3730763,14.87375 C99.3730763,10.83 96.2310113,8.11125 92.9162216,8.11125 C89.4617281,8.11125 86.6320916,10.62625 86.6320916,14.87375 L86.6320916,14.87375 Z" id="Fill-10" fill="#000000"></path>
                    <path d="M76.7949135,7.0785 C76.7949135,6.36475 77.3816693,5.7535 78.106859,5.7535 C78.8663395,5.7535 79.4543654,6.331 79.4543654,7.0785 L79.4543654,22.55475 C79.4543654,23.3035 78.9006304,23.87975 78.1411499,23.87975 C77.3816693,23.87975 76.7949135,23.3035 76.7949135,22.55475 L76.7949135,7.0785 Z" id="Fill-8" fill="#000000"></path>
                    <path d="M63.84069,5.753625 C61.2955412,5.753625 59.0501204,7.013625 57.7076941,8.931125 C56.372888,7.022375 54.154138,5.766125 51.6178794,5.766125 C47.5067782,5.766125 44.172938,9.047375 44.172938,13.093625 L44.172938,22.554875 C44.172938,23.302375 44.7584238,23.879875 45.5191744,23.879875 C46.2786549,23.879875 46.8323899,23.302375 46.8323899,22.554875 L46.8298499,12.843625 C46.8298499,10.242375 48.9711278,8.136125 51.6140693,8.136125 C54.2544707,8.136125 56.3970187,10.242375 56.3970187,12.843625 L56.3957486,21.471125 L56.3957486,21.471125 L56.3957486,21.474875 C56.3957486,22.197375 56.9901247,22.783625 57.7254746,22.783625 C58.4595545,22.783625 59.0552006,22.197375 59.0552006,21.474875 L59.0513905,12.831125 C59.0513905,10.231125 61.1939384,8.123625 63.8356099,8.123625 C66.4772814,8.123625 68.6185593,10.231125 68.6185593,12.831125 L68.6185593,22.542375 C68.6185593,23.291125 69.2053152,23.867375 69.9305048,23.867375 C70.6899853,23.867375 71.2780112,23.291125 71.2780112,22.542375 L71.2856314,13.093625 C71.2856314,8.919875 67.7816066,5.753625 63.84069,5.753625" id="Fill-22" fill="#000000"></path>
                </g>
            </g>
        </g>
    </g>
</svg>