<svg width="131" height="131" viewBox="0 0 131 131" fill="none" xmlns="http://www.w3.org/2000/svg">
<rect width="131" height="131" rx="40" fill="#0030FF"/>
<path d="M66.7221 101C56.6845 101 48.2214 97.6874 41.3329 91.0622C34.4443 84.4371 31 75.7659 31 65.0487C31 54.3965 34.4771 45.7253 41.4313 39.0352C48.451 32.3451 56.8157 29 66.5253 29C75.4477 29 82.5987 31.2409 87.9783 35.7226C93.4235 40.2043 96.9334 45.5954 98.508 51.8958L85.7149 55.8904C84.7308 51.9932 82.6643 48.7131 79.5152 46.0501C76.3661 43.3221 72.0362 41.9581 66.5253 41.9581C60.8177 41.9581 55.7988 43.9716 51.4689 47.9986C47.2045 52.0257 45.0724 57.7091 45.0724 65.0487C45.0724 72.0636 47.1717 77.617 51.3705 81.7091C55.6348 85.8011 60.7521 87.8471 66.7221 87.8471C72.1674 87.8471 76.4974 86.4506 79.712 83.6576C82.9923 80.8647 85.1901 77.5521 86.3054 73.7199L99 77.5196C98.2783 80.3126 97.0975 83.0406 95.4573 85.7037C93.8828 88.3667 91.8162 90.8674 89.2576 93.2057C86.699 95.544 83.4515 97.4276 79.5152 98.8566C75.6445 100.286 71.3801 101 66.7221 101Z" fill="white"/>
</svg>
