<svg width="109" height="109" viewBox="0 0 109 109" fill="none" xmlns="http://www.w3.org/2000/svg">
<path d="M55.9436 70C47.5297 70 40.4356 67.1475 34.6614 61.4425C28.8871 55.7375 26 48.2706 26 39.042C26 29.8692 28.9146 22.4023 34.7438 16.6414C40.6281 10.8805 47.6397 8 55.7786 8C63.2576 8 69.2518 9.92963 73.7612 13.7889C78.3256 17.6482 81.2677 22.2905 82.5876 27.7158L71.864 31.1556C71.0391 27.7997 69.3068 24.9752 66.6671 22.682C64.0275 20.3329 60.398 19.1583 55.7786 19.1583C50.9942 19.1583 46.7873 20.8922 43.1577 24.3599C39.5832 27.8277 37.7959 32.7217 37.7959 39.042C37.7959 45.0825 39.5557 49.8647 43.0753 53.3884C46.6498 56.912 50.9392 58.6739 55.9436 58.6739C60.508 58.6739 64.1375 57.4714 66.8321 55.0663C69.5818 52.6613 71.424 49.8088 72.3589 46.5088L83 49.7808C82.3951 52.1858 81.4052 54.535 80.0304 56.8281C78.7106 59.1213 76.9783 61.2747 74.8336 63.2882C72.6889 65.3018 69.9667 66.9238 66.6671 68.1543C63.4226 69.3848 59.848 70 55.9436 70Z" fill="white"/>
<path d="M13.0192 98.1498C11.3278 98.1498 9.90181 97.5961 8.74108 96.4886C7.58036 95.3811 7 93.9316 7 92.1401C7 90.3594 7.58589 88.9099 8.75767 87.7915C9.9405 86.6732 11.3499 86.114 12.986 86.114C14.4894 86.114 15.6944 86.4886 16.6008 87.2378C17.5184 87.987 18.1098 88.8882 18.3751 89.9414L16.2195 90.6091C16.0536 89.9577 15.7054 89.4093 15.1748 88.9642C14.6442 88.5081 13.9146 88.2801 12.986 88.2801C12.0243 88.2801 11.1786 88.6167 10.449 89.2899C9.73046 89.9631 9.37119 90.9131 9.37119 92.1401C9.37119 93.3127 9.72493 94.241 10.4324 94.9251C11.151 95.6091 12.0132 95.9511 13.0192 95.9511C13.9367 95.9511 14.6663 95.7177 15.208 95.2508C15.7607 94.7839 16.131 94.2302 16.3189 93.5896L18.458 94.2248C18.3364 94.6916 18.1374 95.1477 17.861 95.5928C17.5957 96.038 17.2475 96.456 16.8164 96.8469C16.3853 97.2378 15.8381 97.5527 15.1748 97.7915C14.5226 98.0304 13.804 98.1498 13.0192 98.1498Z" fill="white"/>
<path d="M22.1071 95.5765C22.5162 95.9783 23.0081 96.1792 23.5829 96.1792C24.1577 96.1792 24.6441 95.9783 25.0421 95.5765C25.4511 95.1748 25.6556 94.6156 25.6556 93.899C25.6556 93.1824 25.4511 92.6232 25.0421 92.2215C24.6441 91.8198 24.1577 91.6189 23.5829 91.6189C23.0081 91.6189 22.5162 91.8198 22.1071 92.2215C21.7092 92.6232 21.5102 93.1824 21.5102 93.899C21.5102 94.6156 21.7092 95.1748 22.1071 95.5765ZM20.5153 90.8534C21.3333 90.0499 22.3559 89.6482 23.5829 89.6482C24.81 89.6482 25.827 90.0499 26.634 90.8534C27.452 91.6569 27.861 92.6721 27.861 93.899C27.861 95.126 27.452 96.1412 26.634 96.9446C25.827 97.7481 24.81 98.1498 23.5829 98.1498C22.3559 98.1498 21.3333 97.7481 20.5153 96.9446C19.7083 96.1412 19.3048 95.126 19.3048 93.899C19.3048 92.6721 19.7083 91.6569 20.5153 90.8534Z" fill="white"/>
<path d="M37.5942 89.013V89.8925H39.4348V91.7492H37.5942V97.9055H35.3889V91.7492H32.2383V97.9055H30.0164V91.7492H28.6567V89.8925H30.0164V88.9805C30.0164 88.0793 30.2817 87.3572 30.8123 86.8143C31.354 86.2714 32.078 86 32.9845 86C33.4709 86 33.8357 86.0543 34.0789 86.1629V87.987C33.891 87.9327 33.6588 87.9055 33.3825 87.9055C33.084 87.9055 32.8187 87.9924 32.5865 88.1661C32.3544 88.329 32.2383 88.6113 32.2383 89.013V89.8925H35.3889V88.9805C35.3889 88.0793 35.6542 87.3572 36.1848 86.8143C36.7265 86.2714 37.4505 86 38.357 86C38.8434 86 39.2082 86.0543 39.4514 86.1629V87.987C39.2635 87.9327 39.0313 87.9055 38.755 87.9055C38.4565 87.9055 38.1912 87.9924 37.959 88.1661C37.7269 88.329 37.6053 88.6113 37.5942 89.013Z" fill="white"/>
<path d="M42.4807 92.987H46.1287C46.1065 92.5418 45.9407 92.1672 45.6312 91.8632C45.3327 91.5592 44.8905 91.4072 44.3047 91.4072C43.774 91.4072 43.3429 91.57 43.0113 91.8958C42.6796 92.2215 42.5028 92.5852 42.4807 92.987ZM46.3442 95.0717L48.1848 95.6091C47.9637 96.3474 47.5271 96.9555 46.8748 97.4332C46.2337 97.911 45.4322 98.1498 44.4705 98.1498C43.2987 98.1498 42.3038 97.7644 41.4858 96.9935C40.6677 96.2117 40.2587 95.1694 40.2587 93.8664C40.2587 92.6287 40.6567 91.6189 41.4526 90.8371C42.2485 90.0445 43.1882 89.6482 44.2715 89.6482C45.5317 89.6482 46.5156 90.0174 47.223 90.7557C47.9416 91.494 48.3009 92.5092 48.3009 93.8013C48.3009 93.8882 48.2953 93.9859 48.2843 94.0945C48.2843 94.203 48.2843 94.2899 48.2843 94.355L48.2677 94.4691H42.4309C42.453 94.9902 42.6631 95.4245 43.061 95.772C43.459 96.1194 43.9343 96.2932 44.4871 96.2932C45.4267 96.2932 46.0457 95.886 46.3442 95.0717Z" fill="white"/>
<path d="M51.646 92.987H55.294C55.2718 92.5418 55.106 92.1672 54.7965 91.8632C54.498 91.5592 54.0559 91.4072 53.47 91.4072C52.9393 91.4072 52.5082 91.57 52.1766 91.8958C51.845 92.2215 51.6681 92.5852 51.646 92.987ZM55.5095 95.0717L57.3501 95.6091C57.129 96.3474 56.6924 96.9555 56.0401 97.4332C55.399 97.911 54.5975 98.1498 53.6358 98.1498C52.464 98.1498 51.4691 97.7644 50.6511 96.9935C49.833 96.2117 49.424 95.1694 49.424 93.8664C49.424 92.6287 49.822 91.6189 50.6179 90.8371C51.4138 90.0445 52.3535 89.6482 53.4368 89.6482C54.697 89.6482 55.6809 90.0174 56.3884 90.7557C57.1069 91.494 57.4662 92.5092 57.4662 93.8013C57.4662 93.8882 57.4606 93.9859 57.4496 94.0945C57.4496 94.203 57.4496 94.2899 57.4496 94.355L57.433 94.4691H51.5962C51.6183 94.9902 51.8284 95.4245 52.2263 95.772C52.6243 96.1194 53.0996 96.2932 53.6524 96.2932C54.592 96.2932 55.2111 95.886 55.5095 95.0717Z" fill="white"/>
<path d="M71.375 89.1107L69.3189 89.7296C69.2415 89.317 69.0315 88.9425 68.6888 88.6059C68.3461 88.2693 67.8431 88.101 67.1798 88.101C66.6382 88.101 66.196 88.2476 65.8533 88.5407C65.5106 88.823 65.3393 89.165 65.3393 89.5668C65.3393 90.2725 65.7649 90.7068 66.6161 90.8697L68.2576 91.1792C69.2968 91.3746 70.1037 91.7818 70.6786 92.4007C71.2534 93.0195 71.5408 93.747 71.5408 94.5831C71.5408 95.5385 71.1539 96.3746 70.3801 97.0912C69.6173 97.797 68.5893 98.1498 67.2959 98.1498C66.5553 98.1498 65.8865 98.0413 65.2895 97.8241C64.6926 97.6069 64.2117 97.3192 63.8469 96.9609C63.4821 96.5917 63.1947 96.2063 62.9846 95.8046C62.7857 95.392 62.6641 94.9685 62.6199 94.5342L64.7423 93.9805C64.7976 94.5993 65.0408 95.1151 65.4719 95.5277C65.9141 95.9403 66.5276 96.1466 67.3125 96.1466C67.9094 96.1466 68.3737 96.0163 68.7054 95.7557C69.048 95.4951 69.2194 95.1531 69.2194 94.7296C69.2194 94.3931 69.0923 94.1053 68.838 93.8664C68.5948 93.6167 68.2466 93.4484 67.7934 93.3616L66.1518 93.0358C65.2011 92.8404 64.4494 92.4549 63.8966 91.8795C63.3439 91.304 63.0676 90.5874 63.0676 89.7296C63.0676 88.709 63.4655 87.8512 64.2614 87.1564C65.0684 86.4615 66.0357 86.114 67.1632 86.114C67.8376 86.114 68.44 86.2063 68.9707 86.3909C69.5013 86.5755 69.9269 86.8252 70.2475 87.1401C70.568 87.4441 70.8168 87.759 70.9936 88.0847C71.1705 88.4104 71.2976 88.7524 71.375 89.1107Z" fill="white"/>
<path d="M75.4315 93.1987V97.9055H73.2261V86.114H75.4315V90.5603C75.9289 89.9739 76.664 89.6808 77.6368 89.6808C78.6317 89.6808 79.3834 89.9794 79.8919 90.5765C80.4115 91.1629 80.6713 91.9229 80.6713 92.8567V97.9055H78.4659V93.2313C78.4659 92.7535 78.3388 92.3681 78.0845 92.0749C77.8413 91.7818 77.4655 91.6352 76.957 91.6352C76.5037 91.6352 76.1389 91.7818 75.8626 92.0749C75.5973 92.3681 75.4536 92.7427 75.4315 93.1987Z" fill="white"/>
<path d="M85.0984 95.5765C85.5074 95.9783 85.9993 96.1792 86.5741 96.1792C87.149 96.1792 87.6354 95.9783 88.0333 95.5765C88.4423 95.1748 88.6469 94.6156 88.6469 93.899C88.6469 93.1824 88.4423 92.6232 88.0333 92.2215C87.6354 91.8198 87.149 91.6189 86.5741 91.6189C85.9993 91.6189 85.5074 91.8198 85.0984 92.2215C84.7004 92.6232 84.5014 93.1824 84.5014 93.899C84.5014 94.6156 84.7004 95.1748 85.0984 95.5765ZM83.5065 90.8534C84.3245 90.0499 85.3471 89.6482 86.5741 89.6482C87.8012 89.6482 88.8182 90.0499 89.6252 90.8534C90.4432 91.6569 90.8522 92.6721 90.8522 93.899C90.8522 95.126 90.4432 96.1412 89.6252 96.9446C88.8182 97.7481 87.8012 98.1498 86.5741 98.1498C85.3471 98.1498 84.3245 97.7481 83.5065 96.9446C82.6995 96.1412 82.296 95.126 82.296 93.899C82.296 92.6721 82.6995 91.6569 83.5065 90.8534Z" fill="white"/>
<path d="M94.7984 101H92.593V89.8925H94.7321V90.8697C94.9311 90.544 95.2517 90.2725 95.6938 90.0554C96.136 89.8274 96.6501 89.7134 97.2359 89.7134C98.3967 89.7134 99.3142 90.1042 99.9885 90.886C100.663 91.6569 101 92.6558 101 93.8827C101 95.1097 100.641 96.1194 99.9222 96.9121C99.2147 97.7047 98.2916 98.101 97.153 98.101C96.0697 98.101 95.2848 97.7752 94.7984 97.1238V101ZM98.2474 95.5603C98.6343 95.1477 98.8278 94.5939 98.8278 93.899C98.8278 93.2041 98.6343 92.6558 98.2474 92.2541C97.8716 91.8523 97.3907 91.6515 96.8048 91.6515C96.2189 91.6515 95.7325 91.8578 95.3456 92.2704C94.9587 92.6721 94.7653 93.215 94.7653 93.899C94.7653 94.5831 94.9587 95.1314 95.3456 95.544C95.7325 95.9566 96.2189 96.1629 96.8048 96.1629C97.3907 96.1629 97.8716 95.962 98.2474 95.5603Z" fill="white"/>
</svg>
